<?xml version="1.0" standalone="no"?>
<!DOCTYPE svg PUBLIC "-//W3C//DTD SVG 1.1//EN" "http://www.w3.org/Graphics/SVG/1.1/DTD/svg11.dtd" >
<svg xmlns="http://www.w3.org/2000/svg" xmlns:xlink="http://www.w3.org/1999/xlink" version="1.1">
<metadata></metadata>
<defs>
<font id="matchingerregular" horiz-adv-x="1325" >
<font-face units-per-em="2048" ascent="1638" descent="-410" />
<missing-glyph horiz-adv-x="508" />
<glyph unicode="&#xd;" horiz-adv-x="508" />
<glyph horiz-adv-x="0" />
<glyph horiz-adv-x="0" />
<glyph unicode=" "  horiz-adv-x="508" />
<glyph unicode="&#x09;" horiz-adv-x="508" />
<glyph unicode="&#xa0;" horiz-adv-x="508" />
<glyph unicode="!" horiz-adv-x="580" d="M200 47v41q0 46 29 79q41 48 98 48q25 0 49 -16.5t24 -54.5v-44q0 -43 -29 -77q-40 -47 -97 -47q-26 0 -50 16.5t-24 54.5zM207 341v1029q0 39 27 72q38 48 88 48q25 0 47.5 -17t22.5 -55v-1030q0 -38 -26 -71q-38 -48 -90 -48q-24 0 -46.5 16.5t-22.5 55.5z" />
<glyph unicode="&#x22;" horiz-adv-x="564" d="M50 1005v374q0 36 25 67q35 44 84 44q22 0 42.5 -15.5t20.5 -51.5v-374q0 -35 -24 -66q-35 -44 -83 -44q-23 0 -44 15t-21 51zM322 1005v374q0 36 25 67q35 44 84 44q22 0 42.5 -15.5t20.5 -51.5v-374q0 -35 -24 -66q-35 -44 -83 -44q-23 0 -44 15t-21 51z" />
<glyph unicode="#" horiz-adv-x="1096" d="M30 513q0 44 36 79q28 27 64 30l144 13l20 149q-144 -13 -170 -13q-32 0 -49 18.5t-17 46.5q0 44 36 79q28 27 64 30l161 15q34 211 65 424q6 38 34 66q33 33 71 33q31 0 49 -18.5t18 -48.5q0 -15 -67 -441l145 13q31 197 60 396q6 38 34 66q33 33 71 33q31 0 49 -18.5 t18 -48.5q0 -15 -49 -323l-14 -90q162 15 179 15q32 0 48.5 -19t16.5 -45q0 -46 -36 -81q-28 -28 -64 -31l-169 -15l-20 -148q159 15 196 15q32 0 48.5 -18.5t16.5 -44.5q0 -46 -36 -82q-28 -27 -64 -30l-183 -16q-22 -206 -24 -410q0 -36 -25 -67q-35 -44 -83 -44 q-23 0 -44 15t-21 51q3 220 27 439l-143 -13q-19 -191 -21 -381q0 -36 -25 -67q-35 -44 -83 -44q-23 0 -44 15t-21 51q3 206 24 411q-145 -13 -157 -13q-32 0 -49 19.5t-17 47.5zM444 650l144 13q9 75 20 149l-144 -13z" />
<glyph unicode="$" horiz-adv-x="1227" d="M62 292q0 55 52 95q32 24 65 24q39 0 60 -32q108 -168 285 -204v477q-98 28 -167 58q-191 84 -243 246q-14 43 -14 92q0 98 48 191q45 89 125 143q111 75 251 98v164q0 31 22 58q30 38 72 38q19 0 36.5 -13.5t17.5 -43.5v-194q51 -2 98 -11q104 -20 182 -60.5t150 -108.5 q22 -20 22 -52q0 -47 -33 -80q-38 -38 -83 -38q-28 0 -48 19q-109 102 -265 132q-11 2 -23 3v-473q240 -69 340 -154q122 -105 122 -269q0 -141 -78 -231q-137 -158 -384 -185v-216q0 -31 -21 -57q-30 -38 -72 -38q-19 0 -37 13t-18 44v251q-127 10 -230 63 q-126 64 -221 213q-11 17 -11 38zM285 1096q0 -146 239 -233v430q-239 -25 -239 -197zM672 166q156 10 237 86q43 41 43 100q0 158 -247 245l-33 11v-442z" />
<glyph unicode="%" horiz-adv-x="1024" d="M80 1200q0 93 53 174q26 42 68 70q69 46 152 46q81 0 146 -46q51 -36 76 -114q18 -55 18 -104q0 -52 -28 -119.5t-106 -117.5q-71 -45 -150 -45q-104 0 -171 82q-58 71 -58 174zM107 35q0 66 13 129q39 199 167 393q75 114 161 225q106 137 200 288.5t146 340.5 q9 33 34 56t56 23q30 0 44 -22q11 -17 11 -36q0 -9 -6 -36q-52 -218 -197 -435q-79 -118 -166 -229q-121 -155 -212 -314q-96 -166 -102 -345q-1 -30 -22 -58q-31 -39 -71 -39q-20 0 -38 14t-18 45zM226 1230q0 -51 31 -85q44 -48 100 -48q51 0 73 43q13 28 13 65 q0 50 -31 91t-96 41q-46 0 -68 -29.5t-22 -77.5zM431 232q0 93 53 175q26 41 68 69q69 46 152 46q81 0 146 -46q51 -36 76 -114q18 -54 18 -104q0 -52 -28 -119.5t-106 -117.5q-71 -45 -150 -45q-104 0 -171 83q-58 71 -58 173zM577 262q0 -50 31 -85q44 -48 100 -48 q51 0 73 44q13 27 13 65q0 50 -31 90.5t-96 40.5q-46 0 -68 -29t-22 -78z" />
<glyph unicode="&#x26;" horiz-adv-x="1135" d="M78 268q0 148 67.5 249t166.5 178q-31 64 -53 130q-48 146 -48 263q0 169 97 271q110 115 263 115q134 0 223 -91q79 -79 79 -194q0 -119 -49 -210.5t-125.5 -164t-160.5 -135.5q114 -181 259 -328q61 86 65 195q2 37 26 68q34 44 84 44q27 0 45.5 -18t18.5 -48 q0 -75 -25 -152q-32 -103 -104 -194q60 -55 117 -100q25 -20 25 -54q-1 -35 -27 -67q-35 -44 -82 -44q-21 0 -39 13q-67 52 -135 115q-176 -126 -367 -126q-147 0 -234 75.5t-87 209.5zM249 328q0 -169 203 -169q93 0 200 60q-149 153 -266 339q-137 -118 -137 -230z M384 1132q0 -103 50 -241q14 -39 32 -78q236 179 236 323q0 82 -51 125.5t-130 43.5q-78 0 -109 -55q-28 -51 -28 -118z" />
<glyph unicode="'" horiz-adv-x="292" d="M50 1005v374q0 36 25 67q35 44 84 44q22 0 42.5 -15.5t20.5 -51.5v-374q0 -35 -24 -66q-35 -44 -83 -44q-23 0 -44 15t-21 51z" />
<glyph unicode="(" horiz-adv-x="674" d="M109 711q0 115 23.5 268t109.5 320.5t241 284.5q54 41 96 61q99 46 143 46q52 0 52 -65q0 -34 -22.5 -65t-58.5 -44q-191 -70 -287 -239q-124 -218 -124 -522q0 -147 25 -265q88 -412 424 -539q43 -16 43 -65q0 -21 -12 -45q-18 -36 -51 -54q-22 -12 -44 -12q-10 0 -21 4 q-179 66 -290.5 187t-176.5 303q-70 195 -70 441z" />
<glyph unicode=")" horiz-adv-x="701" d="M-95 -159q0 35 22.5 65.5t58.5 43.5q192 70 288 239q124 218 124 523q0 146 -25 265q-89 411 -425 539q-43 16 -43 64q0 21 12 45q18 36 51 54q22 12 44 12q11 0 21 -3q179 -67 290.5 -188t176.5 -302q70 -196 70 -442q0 -115 -23.5 -268t-109.5 -320.5t-241 -284.5 q-54 -41 -95 -60q-100 -47 -143 -47q-53 0 -53 65z" />
<glyph unicode="*" horiz-adv-x="679" d="M4 1299q0 21 13 44q17 31 46 44q17 8 33 8q12 0 29 -7q73 -28 152 -76q5 163 35 196.5t67 33.5q22 0 36 -13.5t14 -39.5q0 -96 -5 -191q74 54 154 106q23 15 45 15q35 0 49 -32q6 -13 6 -27q0 -48 -47 -79q-83 -55 -159 -111q80 -71 147 -156q12 -15 12 -36 q0 -33 -31.5 -63.5t-60.5 -30.5q-28 0 -45 22q-71 87 -158 160q-82 -66 -169 -138q-26 -22 -54 -22h-15q-15 0 -31 23q-11 15 -11 33q0 41 37 73q68 59 134 111q-89 59 -189 101q-34 14 -34 52z" />
<glyph unicode="+" horiz-adv-x="1190" d="M100 688q0 47 41 84q29 25 65 26l302 9l-4 288q0 33 22 62q34 45 83 45q22 0 42.5 -14.5t21.5 -50.5l7 -326q286 8 343 8q37 0 54 -24q13 -17 13 -42q0 -47 -41 -83q-29 -26 -65 -27l-301 -9l4 -284q0 -36 -24 -67q-35 -45 -84 -45q-22 0 -42 14.5t-21 50.5l-5 326 q-290 -8 -344 -8q-36 0 -54 25q-13 17 -13 42z" />
<glyph unicode="," horiz-adv-x="469" d="M100 -217q0 25 15 53q38 72 53 129t15 130q0 54 23 77q43 42 96 42q23 0 45 -16.5t22 -54.5q0 -159 -91 -324q-57 -98 -117 -98q-24 0 -42.5 16t-18.5 46z" />
<glyph unicode="-" horiz-adv-x="1035" d="M100 541q0 48 40 84q29 25 65 26q134 6 299 11q126 4 221.5 8t142.5 4q36 0 54 -25q13 -17 13 -41q0 -49 -40 -84q-29 -26 -65 -27q-615 -21 -666 -21q-34 0 -51 23q-13 17 -13 42z" />
<glyph unicode="." horiz-adv-x="400" d="M100 47v41q0 46 29 79q41 48 98 48q25 0 49 -16.5t24 -54.5v-43q0 -44 -29 -77q-40 -48 -97 -48q-26 0 -50 16.5t-24 54.5z" />
<glyph unicode="/" horiz-adv-x="622" d="M0 48q0 16 6 34q241 666 448 1334q12 38 41.5 61t61.5 23q39 0 55 -30q10 -17 10 -37q0 -13 -5 -29q-208 -674 -451 -1344q-14 -38 -46 -60q-27 -19 -55 -19q-25 0 -41 13q-24 19 -24 54z" />
<glyph unicode="0" horiz-adv-x="1378" d="M131 732q0 165 54.5 324.5t178.5 281.5q89 87 178 117q104 35 213 35q161 0 268.5 -73.5t180.5 -210.5q57 -105 84 -252q19 -100 19 -207q0 -219 -85 -408q-66 -146 -200 -248q-150 -115 -321 -115q-107 0 -214 47q-220 96 -309 386q-47 151 -47 323zM319 771 q0 -253 101 -410q83 -127 206 -172q58 -22 113 -22q64 0 134 30q102 44 157 136q89 150 89 379q0 129 -24 222q-69 263 -263 341q-62 25 -136 25q-58 0 -109 -15q-59 -17 -112 -71q-48 -48 -81 -106q-75 -133 -75 -337z" />
<glyph unicode="1" horiz-adv-x="802" d="M-4 843q0 53 37 88q171 161 331 336q84 92 169 180q42 44 90 44q10 0 20 -3q46 -13 46 -72q0 -13 -3 -52q-32 -369 -32 -838q0 -175 2.5 -280t2.5 -148q0 -39 -25 -72q-38 -49 -92 -49q-22 0 -47.5 15t-25.5 56v249q0 541 20 865q-351 -391 -424 -391q-31 0 -52 23 q-17 21 -17 49z" />
<glyph unicode="2" horiz-adv-x="1025" d="M-4 63q0 44 95 116q282 218 476 444q207 242 207 423q0 128 -67 191q-45 42 -138 58q-30 5 -60 5q-150 0 -293 -112q-36 -28 -73 -28q-34 0 -54 27q-16 20 -16 45q0 48 46 87q114 96 225 135q103 36 221 36q173 0 276 -99q118 -114 118 -299q0 -122 -62 -257 q-139 -305 -552 -656q85 13 214 13q207 0 349 -32q51 -12 51 -66q0 -21 -14.5 -53t-50.5 -52q-25 -13 -50 -13q-15 0 -36 4q-121 20 -298 20q-243 0 -368 -18q-34 -5 -64 -5q-34 0 -58 24t-24 62z" />
<glyph unicode="3" horiz-adv-x="1176" d="M71 376q0 68 67 103q24 13 46 13q52 0 67 -49q23 -71 57 -119.5t95 -87.5q102 -66 245 -66q125 0 187 50q43 36 68 111q16 50 16 93q0 136 -139 206q-108 54 -222 54q-53 0 -90.5 13t-37.5 61q0 66 54 97q45 27 101 44q35 10 64 24q205 98 205 225q0 117 -160 147 q-34 6 -70 6q-58 0 -135.5 -20.5t-164.5 -90.5q-35 -29 -73 -29q-34 0 -54 27q-15 20 -15 45q0 47 45 86q113 96 224 135q104 36 222 36t212 -50q88 -47 130 -133q24 -50 24 -111q0 -46 -14 -98q-44 -158 -198 -267q220 -71 267 -274q11 -46 11 -92q0 -280 -251 -420 q-124 -69 -253 -69q-168 0 -304 82q-163 99 -217 268q-9 30 -9 50z" />
<glyph unicode="4" horiz-adv-x="1139" d="M51 337q0 27 19 67q37 77 274 438q200 305 422 598q38 50 93 50q24 0 46 -17t22 -56q-2 -196 -2 -394q0 -360 5 -523q59 -4 117 -10q37 -4 52 -34q8 -16 8 -35q0 -16 -7 -35q-14 -40 -48 -62q-29 -18 -62 -18q-27 0 -51 1q3 -65 9 -134q2 -34 2 -76q0 -36 -22 -68.5 t-61 -46.5q-16 -6 -31 -6q-62 0 -67 64q-11 136 -17 275h-44q-52 0 -205 -3.5t-332 -29.5q-20 -3 -38 -3q-42 0 -66 19q-16 13 -16 39zM311 485q244 20 435 20q-3 92 -5 628q-225 -316 -430 -648z" />
<glyph unicode="5" horiz-adv-x="1131" d="M71 302q0 27 18 58t56 49q22 10 42 10q53 0 68 -55q11 -38 24 -65q35 -74 152 -111q65 -20 137 -20q9 0 56 1t114.5 39t93.5 123q17 52 17 100q0 83 -56.5 164.5t-176.5 136.5q-157 72 -289 72q-44 0 -80 9q-48 11 -48 65q0 73 52 371l7 54q12 87 43 137q25 42 101 42 q15 0 32 -2q156 -18 298 -18q143 0 284 26q11 2 21 2q26 0 44 -15q24 -19 24 -57q0 -41 -28.5 -74t-67.5 -41q-159 -31 -326 -31q-124 0 -246 12q-25 -145 -46 -289q135 -12 263 -55.5t224.5 -126t136.5 -212.5q20 -65 20 -132q0 -180 -105 -303q-15 -20 -34 -39 q-93 -98 -243 -134q-73 -17 -143 -17q-301 0 -407 231q-32 71 -32 95z" />
<glyph unicode="6" horiz-adv-x="1107" d="M126 479q0 153 37 289q112 421 414 692q33 29 69 30q36 0 57 -27q14 -20 14 -45q0 -50 -44 -89q-33 -30 -58 -56q-139 -142 -227 -364q110 33 213 33q239 0 373 -167q92 -116 92 -269q0 -134 -65.5 -260.5t-195.5 -204.5q-108 -65 -251 -65q-214 0 -321 135.5t-107 367.5 zM308 528q0 -178 92 -279q74 -82 203 -82q201 0 259 186q19 60 19 113q0 90 -61 173q-85 112 -272 112q-108 0 -222 -52q-18 -90 -18 -171z" />
<glyph unicode="7" horiz-adv-x="796" d="M27 1368q0 16 7 35q14 40 48 63q28 20 59 20q11 0 27 -2q167 -19 326 -19q126 0 243 21q23 4 43 4q79 0 79 -52q0 -36 -31 -93q-22 -40 -59 -102q-152 -261 -272 -606q-101 -291 -110 -542q-1 -38 -27 -71q-38 -48 -90 -48q-24 0 -46 16t-22 53q0 63 10 146 q28 220 113 469q113 329 277 622q-75 -2 -143 -2q-224 0 -372 18q-37 5 -52 35q-8 16 -8 35z" />
<glyph unicode="8" horiz-adv-x="1192" d="M119 366q0 125 57 214q70 109 232 196q-101 66 -146.5 156.5t-45.5 171.5q0 175 167 293q132 93 291 93q112 0 214 -61q152 -90 152 -288q0 -129 -69 -217q-61 -77 -156 -132q100 -48 182.5 -109.5t122.5 -151.5q23 -53 23 -120q0 -222 -169 -338q-141 -97 -347 -97 q-103 0 -217 30q-123 33 -195 109q-96 102 -96 251zM304 413q0 -84 49.5 -140t135.5 -80.5t171 -24.5q137 0 213 39q85 44 85 156q0 93 -101 163q-93 64 -219 125l-56 27q-92 -38 -176 -95q-102 -68 -102 -170zM402 1143q0 -142 240 -262q213 108 213 220q0 87 -70 147 q-58 50 -162 50q-122 0 -178 -56q-43 -43 -43 -99z" />
<glyph unicode="9" horiz-adv-x="1058" d="M60 960q0 134 65.5 260.5t195.5 204.5q108 65 251 65q215 0 322 -135.5t107 -367.5q0 -153 -37 -289q-112 -421 -414 -692q-34 -29 -70 -30q-36 0 -56 27q-15 20 -15 45q0 50 44 89q33 30 59 56q139 142 227 364q-110 -33 -213 -33q-240 0 -374 167q-92 116 -92 269z M245 1000q0 -90 62 -173q84 -112 272 -112q108 0 222 52q18 90 18 171q0 178 -92 279q-74 82 -203 82q-202 0 -260 -186q-19 -60 -19 -113z" />
<glyph unicode=":" horiz-adv-x="400" d="M100 47v41q0 46 29 79q41 48 98 48q25 0 49 -16.5t24 -54.5v-43q0 -44 -29 -77q-40 -48 -97 -48q-26 0 -50 16.5t-24 54.5zM100 852v41q0 46 29 79q41 48 98 48q25 0 49 -16.5t24 -54.5v-44q0 -43 -29 -77q-40 -47 -97 -47q-26 0 -50 16.5t-24 54.5z" />
<glyph unicode=";" horiz-adv-x="469" d="M100 -217q0 25 15 53q38 72 53 129t15 130q0 54 23 77q43 42 96 42q23 0 45 -16.5t22 -54.5q0 -159 -91 -324q-57 -98 -117 -98q-24 0 -42.5 16t-18.5 46zM169 852v41q0 46 29 79q41 48 98 48q25 0 49 -16.5t24 -54.5v-44q0 -43 -29 -77q-40 -47 -97 -47q-26 0 -50 16.5 t-24 54.5z" />
<glyph unicode="&#x3c;" horiz-adv-x="1191" d="M100 670q0 34 65 82q61 44 198 115l604 323q23 12 45 12q27 0 46 -19.5t19 -48.5q0 -21 -14 -49.5t-49 -47.5l-628 -343l667 -286q38 -16 38 -59q0 -25 -16 -53q-21 -35 -55 -50q-18 -8 -36 -8q-15 0 -53 16l-742 323q-89 38 -89 93z" />
<glyph unicode="=" horiz-adv-x="1189" d="M100 526q0 47 40 83q30 26 65 27q756 21 818 21q35 0 54 -24q12 -17 12 -40q0 -50 -40 -86q-29 -25 -65 -26q-705 -21 -818 -21q-35 0 -53 23q-13 18 -13 43zM100 849q0 47 40 83q30 26 65 27q756 21 818 21q35 0 54 -24q12 -17 12 -40q0 -50 -40 -86q-29 -25 -65 -26 q-705 -21 -818 -21q-35 0 -53 23q-13 18 -13 43z" />
<glyph unicode="&#x3e;" horiz-adv-x="1191" d="M100 1091q0 25 16 53q20 35 54 50q19 8 37 8q15 0 53 -16l742 -323q89 -38 89 -93q0 -34 -66 -82q-61 -44 -198 -115l-603 -323q-24 -12 -45 -12q-27 0 -46 19.5t-19 48.5q0 21 13.5 49.5t49.5 47.5l627 343l-666 286q-38 16 -38 59z" />
<glyph unicode="?" horiz-adv-x="940" d="M0 1233q0 45 42 81q112 96 222 134q100 35 214 35q207 0 308 -129q86 -110 86 -269q0 -210 -128 -397q-122 -179 -367 -385q-31 -27 -65 -27t-52 26q-13 18 -13 40q0 47 43 83q216 185 317 337q93 141 93 279q0 88 -46 165q-38 63 -123 88q-45 13 -99 13 q-154 0 -299 -114q-33 -26 -69 -26q-33 0 -51 24q-13 18 -13 42zM181 47v41q0 46 29 79q41 48 98 48q25 0 49 -16.5t24 -54.5v-44q0 -43 -29 -77q-40 -47 -97 -47q-26 0 -50 16.5t-24 54.5z" />
<glyph unicode="@" horiz-adv-x="1963" d="M92 494q0 83 15 172q41 252 171 424.5t313 266.5q225 116 472 116q153 0 296 -48q184 -61 306.5 -204t168.5 -340q22 -94 22 -193q0 -231 -95 -405q-48 -89 -123 -140q-53 -37 -120 -37q-169 0 -227 212q-67 -96 -170 -156q-118 -69 -223 -69q-177 0 -289 159 q-72 102 -72 231q0 180 128 323q95 106 220 131q59 12 116 12q64 0 154 -22q61 -16 116 -49q3 28 23 52q29 35 68 35q21 0 36 -13q19 -15 19 -45q0 -22 -2 -50q-6 -93 -6 -207q0 -295 80 -367q30 -27 58 -27q58 0 102 97q58 128 58 297q0 155 -78.5 333t-285.5 272 q-144 65 -315 65q-146 0 -296.5 -51t-274 -171t-181.5 -315q-38 -129 -38 -250q0 -99 39.5 -248t184.5 -289q211 -205 557 -205q76 0 213.5 16.5t318.5 102.5q20 10 37 10q41 0 53 -38q3 -10 3 -19q0 -57 -55 -84q-175 -86 -345 -116q-131 -23 -262 -23q-318 0 -538 153 q-195 135 -288 361q-64 156 -64 340zM684 530q0 -158 121 -244q53 -38 125 -38q28 0 58 7q170 38 273 276q-1 28 -1 58l1 79q-48 51 -99 82q-75 45 -193 45q-111 0 -183 -51q-102 -71 -102 -214z" />
<glyph unicode="A" horiz-adv-x="1389" d="M96 48q0 101 9.5 267.5t38.5 358t88 368t157 298t246 146.5q26 4 51 4q121 0 220.5 -89t171 -258.5t113 -367t59.5 -379t18 -301.5q0 -38 -26 -71q-38 -48 -89 -48q-24 0 -46.5 17t-22.5 55q-2 219 -34 439q-147 8 -294 8q-224 0 -455 -22q-20 -196 -20 -378 q0 -38 -26 -71q-38 -48 -90 -48q-24 0 -46.5 17t-22.5 55zM324 661q240 25 475 25q108 0 215 -6q-46 210 -122 373q-88 188 -199 239q-25 12 -51 12q-40 0 -81 -30q-160 -112 -229 -561z" />
<glyph unicode="B" horiz-adv-x="1333" d="M146 700q0 287 28 581q4 37 6 77.5t37 76.5q54 55 346 55q110 0 221 -20q259 -48 353 -197q35 -56 35 -133q0 -32 -8 -69q-43 -201 -275 -338q45 -11 88 -26q85 -31 162.5 -94t105.5 -154q8 -28 8 -57q0 -70 -48 -152q-68 -116 -190 -176q-200 -98 -502 -98 q-232 0 -285 41q-82 62 -82 683zM331 740q198 29 306 62q250 78 330 219q21 38 21 71q0 27 -20.5 63.5t-84 70t-132.5 51t-114 21.5q-67 5 -136 5q-70 0 -144 -5q-26 -279 -26 -558zM334 552q7 -192 26 -382q50 -7 202 -7q325 0 463 120q43 37 43 74q0 62 -93 121 q-155 99 -401 99q-138 0 -240 -25z" />
<glyph unicode="C" horiz-adv-x="1355" d="M62 697q0 105 26 217q55 232 188 369q203 207 486 207q266 0 482 -222q18 -19 18 -46q0 -8 -4.5 -32t-36.5 -54q-36 -34 -74 -34q-33 0 -55 23q-110 113 -220 149q-78 26 -159 26q-136 0 -235 -62q-24 -16 -49 -36q-98 -79 -147 -235q-36 -111 -36 -218q0 -159 57 -283 q40 -85 123 -167q136 -133 347 -133q93 0 183 37t177 153q41 55 95 55q19 0 35 -9q35 -20 35 -63q0 -30 -22 -62q-98 -136 -210 -207q-147 -94 -348 -94q-205 0 -371 115.5t-242 338.5q-43 127 -43 267z" />
<glyph unicode="D" horiz-adv-x="1461" d="M146 704q0 322 35 655q4 38 35 72q54 59 313 59q73 0 198.5 -14t283.5 -109q150 -90 246 -252q103 -172 103 -378q0 -188 -119 -379q-218 -349 -651 -378q-54 -4 -107 -4q-268 0 -293 57q-6 14 -8 33q-36 316 -36 638zM331 749q0 -292 33 -578q80 -10 170 -10 q435 0 586 315q56 118 56 231q0 209 -162 388q-84 92 -191 141q-127 58 -264 66q-36 2 -73 2q-62 0 -127 -6q-28 -278 -28 -549z" />
<glyph unicode="E" horiz-adv-x="1275" d="M144 686q0 241 18 487q5 77 16.5 148.5t40 99.5t67.5 33q262 36 512 36q198 0 374 -31q35 -6 48 -37q6 -14 6 -31q0 -19 -9 -41q-16 -39 -51 -61q-25 -15 -52 -15q-10 0 -27 2q-153 23 -338 23q-203 0 -393 -21q-27 -274 -27 -600q105 17 300 17q467 0 497 -59 q9 -17 9 -37q0 -15 -6 -33q-14 -40 -46 -63q-28 -19 -61 -19q-21 0 -35 2q-179 18 -403 18q-123 0 -250 -11q8 -162 25 -323q225 26 440 26q197 0 373 -30q35 -6 48 -38q6 -14 6 -31q0 -19 -9 -40q-16 -40 -51 -61q-25 -15 -52 -15q-10 0 -26 2q-154 23 -339 23 q-230 0 -443 -26q-36 -4 -58 -4q-57 0 -70 111l-14 121q-20 173 -20 478z" />
<glyph unicode="F" horiz-adv-x="1224" d="M145 700q0 296 28 599q13 141 109 154q262 37 512 37q198 0 374 -29q54 -9 54 -70q0 -19 -9 -41q-16 -39 -50 -60q-27 -17 -55 -17q-16 0 -41 4q-137 22 -321 22q-206 0 -392 -21q-24 -268 -24 -530v-68q105 17 299 17q366 0 465 -36q41 -15 41 -59q0 -16 -6 -34 q-14 -40 -45.5 -61.5t-69.5 -21.5q-55 0 -109 5q-167 16 -321 16q-123 0 -249 -11q9 -186 29 -363q3 -26 3 -35q0 -34 -21.5 -66.5t-60.5 -47.5q-18 -7 -34 -7q-106 0 -106 724z" />
<glyph unicode="G" horiz-adv-x="1424" d="M79 726q0 176 72 346q64 152 204 267q145 119 308 143q55 8 108 8q104 0 226 -39t217 -137l44 -46q18 -19 18 -47q0 -8 -4 -31t-36 -54q-36 -33 -75 -33q-33 0 -55 23l-35 37q-68 70 -173 107q-84 30 -173 30q-295 0 -411 -284q-54 -131 -54 -261q0 -52 18.5 -169 t128 -247t279.5 -162q52 -10 99 -10q135 0 250 82q102 72 124 259q-146 7 -288 7q-52 0 -135.5 -2.5t-120.5 -2.5q-34 0 -50 20t-16 49q0 49 40 87q30 29 68 32q127 8 251 8q403 0 431 -50q8 -15 8 -35q0 -393 -317 -566q-144 -79 -291 -79q-5 0 -83.5 2t-206.5 66 q-244 121 -331 410q-39 129 -39 272z" />
<glyph unicode="H" horiz-adv-x="1432" d="M145 700q0 336 40 682q5 40 34 71q36 37 81 37q30 0 49 -20t19 -52q0 -14 -5 -55q-33 -280 -33 -615v-70q103 16 293 16q53 0 195 -4.5t234 -14.5q-5 376 -30 661q-8 72 -8 82q0 32 19.5 52t48.5 20q45 0 81 -37q30 -31 35 -71q33 -325 36.5 -570t3.5 -384l-3 -381 q0 -39 -23.5 -54t-46.5 -15q-52 0 -89 48q-27 33 -27 72l4 381q-253 24 -483 24q-118 0 -234 -8q8 -154 24 -305q8 -68 8 -95q0 -33 -21.5 -65t-60.5 -47q-18 -7 -34 -7q-107 0 -107 724z" />
<glyph unicode="I" horiz-adv-x="550" d="M156 992q0 203 6 382q1 39 28 71q38 45 89 45q24 0 44.5 -16t20.5 -54q-3 -202 -3 -406q0 -129 4 -364q4 -220 25 -435q9 -92 9 -119q0 -33 -21 -65.5t-59 -47.5q-18 -7 -34 -7q-63 0 -69 62q-40 391 -40 954z" />
<glyph unicode="J" horiz-adv-x="1055" d="M1 265q0 60 59 99q29 19 57 19q9 0 29 -4t34.5 -34.5t28.5 -52.5q38 -62 120 -100q60 -28 120 -28t103 39q160 145 160 695q0 146 -21 403q-80 0 -249 -6t-218 -6q-33 0 -51.5 18t-18.5 48q0 47 38 84q54 51 452 51h105q107 0 123 -106q26 -194 26 -406q0 -328 -55 -561 q-41 -173 -137 -295q-114 -146 -319 -146q-121 0 -225 70q-94 62 -154 188q-7 14 -7 31z" />
<glyph unicode="K" horiz-adv-x="1337" d="M146 700q0 267 24 541q7 85 15 141q6 40 35 71q34 37 81 37q29 0 47.5 -20t18.5 -52t-5 -72t-10 -100q-20 -237 -21 -469q206 101 415 263q270 209 451 426q20 24 53 24q39 0 77.5 -31.5t38.5 -87.5q0 -27 -16 -46q-271 -325 -680 -594q237 -323 525 -586q41 -37 41 -74 q0 -28 -23.5 -57.5t-46.5 -29.5q-37 0 -71 31q-312 285 -565 631q-100 -56 -196 -95q6 -190 25 -352q10 -87 10 -104q0 -38 -26 -72q-37 -47 -103 -47q-39 0 -66 172q-28 180 -28 552z" />
<glyph unicode="L" horiz-adv-x="1064" d="M145 698q0 338 39 684q5 40 34 71q36 37 81 37q30 0 49 -20t19 -54q0 -78 -12 -168q-25 -191 -25 -501q0 -292 29 -576q101 12 271 12q310 0 407 -27q52 -15 52 -62q0 -15 -5 -31q-13 -41 -43.5 -62.5t-63.5 -21.5q-29 0 -51 1q-190 12 -350 12q-131 0 -267 -12 q-40 -4 -59 -4q-65 0 -75 109q-30 288 -30 613z" />
<glyph unicode="M" horiz-adv-x="1711" d="M145 700q0 336 39 682q5 40 34 71q36 37 93 37q54 0 73 -39l447 -910l427 878q19 39 54 58q24 13 51 13q47 0 83 -37q29 -31 33 -71q34 -325 38 -570t4 -384q0 -195 -5 -381q-1 -39 -23 -54t-45 -15q-54 0 -90 48q-24 31 -24 69q2 185 2 377q0 406 -17 699l-427 -860 q-38 -77 -91 -77q-36 0 -57 41q-179 347 -405 810q-9 -170 -9 -338q0 -283 30 -559q7 -67 7 -91q0 -34 -21 -66.5t-60 -47.5q-18 -7 -34 -7q-107 0 -107 724z" />
<glyph unicode="N" horiz-adv-x="1431" d="M146 700q0 333 38 679q13 111 116 111q33 0 53 -22l700 -780q-4 344 -28 605q-10 107 -10 135q0 62 68 62q45 0 81 -37q29 -31 33 -71q34 -325 38 -570t4 -384q0 -195 -4 -381q-2 -69 -69 -69q-53 0 -90 48q-25 32 -25 70q2 144 3 292l-707 787q-16 -216 -16 -428 q0 -211 16 -420q5 -73 13.5 -138t8.5 -94q0 -33 -21.5 -65t-60.5 -47q-18 -7 -34 -7q-107 0 -107 724z" />
<glyph unicode="O" horiz-adv-x="1545" d="M68 706q0 169 70 343q78 192 222 304q178 137 416 137q89 0 148 -17.5t97 -32.5q122 -49 210 -143q192 -207 192 -540q0 -212 -93.5 -402t-282.5 -299q-140 -80 -313 -80q-301 0 -483 214q-83 97 -128 218q-55 143 -55 298zM254 750q0 -136 41 -244q31 -81 101 -166 q58 -70 135 -113q112 -62 249 -62q153 0 292 111q103 82 144 249q23 94 23 189q0 142 -52.5 273.5t-171.5 221.5t-291 90q-54 0 -101 -9q-248 -51 -334 -322q-35 -111 -35 -218z" />
<glyph unicode="P" horiz-adv-x="1310" d="M156 982q0 200 6 378q1 39 30 69q37 40 87 47q104 14 272 14q364 0 565 -154q99 -76 133 -191q10 -35 10 -72q0 -91 -59 -198q-169 -303 -635 -414q-112 -26 -211 -42q6 -104 16 -207q9 -90 9 -117q0 -33 -21 -65t-59 -47q-18 -7 -34 -7q-63 0 -69 61q-40 387 -40 945z M341 1003q0 -213 5 -403q78 12 173 32q401 86 525 299q30 52 30 98q0 87 -96 153q-178 121 -476 121q-74 0 -159 -6q-2 -146 -2 -294z" />
<glyph unicode="Q" horiz-adv-x="1550" d="M65 707q0 168 70 341q78 193 222 305q178 137 416 137q89 0 148 -17.5t97 -32.5q122 -49 210 -143q192 -207 192 -541q0 -210 -93 -400q-51 -103 -128 -182q68 -49 144 -85q38 -18 56.5 -49t18.5 -61q0 -73 -67 -73q-19 0 -40 10q-126 59 -244 154q-151 -94 -337 -94 q-301 0 -482 214q-83 97 -129 218q-54 143 -54 299zM251 750q0 -136 40 -244q32 -81 102 -165q58 -70 135 -113q112 -63 248 -63q81 0 157 31q-82 92 -136 201l-40 82q-6 13 -6 26q0 31 24.5 46t50.5 15q75 0 105 -68q52 -120 144 -216q98 82 138 243q23 95 23 190 q0 141 -52.5 272.5t-171.5 221.5t-291 90q-54 0 -101 -10q-249 -50 -334 -321q-35 -111 -35 -218z" />
<glyph unicode="R" horiz-adv-x="1341" d="M156 982q0 200 6 378q1 39 30 69q37 40 87 47q104 14 272 14q364 0 565 -154q99 -76 133 -191q10 -35 10 -72q0 -91 -59 -198q-128 -229 -424 -348q58 -107 149 -193q112 -106 242 -168q38 -17 57 -49t19 -61q-6 -72 -68 -72q-19 0 -40 9q-154 73 -295 198t-225 282 q-129 -33 -261 -54q6 -104 16 -207q9 -90 9 -117q0 -33 -21 -65t-59 -47q-18 -7 -34 -7q-63 0 -69 61q-40 387 -40 945zM341 1003q0 -213 5 -403q78 12 173 32q401 86 525 299q30 52 30 98q0 87 -96 153q-178 121 -476 121q-74 0 -159 -6q-2 -146 -2 -294z" />
<glyph unicode="S" horiz-adv-x="1231" d="M54 292q0 56 52 95q32 25 65 25q39 0 60 -32q138 -215 387 -215q190 0 283 87q43 41 43 101q0 158 -248 244q-84 29 -169 53q-105 28 -179 61q-190 83 -242 245q-14 43 -14 92q0 98 48 192q45 89 124 142q157 107 375 107q65 0 123 -11q104 -20 182 -60.5t150 -107.5 q22 -21 22 -53q0 -47 -33 -80q-38 -38 -83 -38q-28 0 -48 19q-109 102 -265 132q-38 8 -95 8q-123 0 -206 -37q-48 -20 -75 -58q-34 -46 -34 -106q0 -56 37.5 -107t110.5 -87.5t137 -54.5l75 -20q262 -72 367 -162q122 -104 122 -269q0 -141 -78.5 -231.5t-191.5 -136.5 q-129 -53 -283 -53q-161 0 -287 64.5t-221 213.5q-11 18 -11 38z" />
<glyph unicode="T" horiz-adv-x="974" d="M11 1337q0 46 36 82q29 30 68 36q268 35 541 35q214 0 395 -31q36 -6 49 -37q6 -14 6 -31q0 -19 -9 -40q-16 -40 -51 -62q-27 -16 -55 -16q-15 0 -27 2q-156 24 -356 24h-25q-2 -146 -2 -292q0 -498 29 -794q9 -91 9 -117q0 -34 -21 -66t-59 -47q-18 -7 -34 -7 q-63 0 -69 61q-40 389 -40 948q0 163 4 310q-124 -5 -283 -25q-25 -4 -37 -4q-31 0 -50 19.5t-19 51.5z" />
<glyph unicode="U" horiz-adv-x="1471" d="M103 822q0 290 110 587q15 41 49 63q27 18 56 18q47 0 64 -39q7 -15 7 -32q0 -18 -8 -39q-93 -254 -93 -532q0 -195 51 -361q44 -132 147 -228q53 -49 137 -74q59 -18 120 -18q124 0 219 76q184 153 184 553q0 157 -22.5 300t-53.5 229q-5 15 -5 30q0 63 60 102 q29 17 55 17q8 0 28.5 -4t33.5 -38q41 -109 66 -274q22 -141 22 -298q0 -226 -56 -414q-112 -375 -454 -452q-78 -18 -147 -18q-253 0 -401 211q-169 240 -169 635z" />
<glyph unicode="V" horiz-adv-x="1329" d="M95 1373q0 37 26 70q37 47 91 47q23 0 45 -16.5t23 -54.5q5 -276 65 -531q40 -169 127 -398q109 -285 207 -325q30 24 69 87q137 220 231 552.5t102 566.5q1 38 28 72q37 47 90 47q23 0 44.5 -16t21.5 -52q0 -159 -53 -402q-49 -229 -131 -455t-186 -385 q-110 -168 -206 -196q-28 -8 -54 -8q-64 0 -131.5 57t-128 172.5t-102 234t-64.5 195.5q-105 349 -114 738z" />
<glyph unicode="W" horiz-adv-x="1866" d="M123 1371q0 38 27 72q37 47 90 47q24 0 46 -16.5t22 -54.5q1 -163 20 -395q47 -571 167 -795q35 -65 66 -65q20 0 45 34q155 212 221 796q25 228 25 377q0 38 27 72q37 47 90 47q24 0 46 -16.5t22 -54.5q1 -163 20 -395q47 -571 167 -795q35 -65 66 -65q20 0 45 34 q88 120 141.5 343.5t79 452t25.5 361.5q0 38 27 72q38 47 90 47q24 0 46 -16.5t22 -54.5q0 -82 -13.5 -248.5t-47 -367.5t-92 -387t-148.5 -305t-217 -119q-173 0 -269 333q-31 107 -54 232q-19 -72 -40 -141q-134 -424 -366 -424q-173 0 -269 333q-74 254 -103 611 q-22 269 -24 451z" />
<glyph unicode="X" horiz-adv-x="1283" d="M82 47q0 42 32 76q190 215 382 447q-274 362 -409 777q-4 13 -4 26q0 23 14.5 53t53.5 51q24 13 46 13q50 0 66 -47q123 -373 368 -706q244 306 453 685q21 39 57 57q21 11 43 11q13 0 25 -5q45 -17 45 -66q0 -25 -15 -51q-231 -426 -505 -762q225 -271 490 -451 q30 -21 30 -61q0 -34 -25 -67q-39 -51 -91 -51q-20 0 -38 12q-271 182 -501 452q-224 -268 -363 -421q-39 -43 -84 -43q-26 0 -45 17q-25 21 -25 54z" />
<glyph unicode="Y" horiz-adv-x="1147" d="M32 1371q0 24 15 54.5t53 51.5q24 13 46 13q51 0 67 -47q66 -202 160 -371t214 -327q252 317 446 678q21 38 57 56q22 11 44 11q13 0 26 -5q44 -16 44 -67q0 -24 -14 -51q-227 -421 -529 -790q0 -110 -1 -220q-2 -132 -2 -262q0 -38 -27 -71q-38 -48 -89 -48 q-24 0 -46.5 16.5t-22.5 54.5q0 129 2 325l1 92l-2 85q-143 182 -253 374t-185 424q-4 12 -4 24z" />
<glyph unicode="Z" horiz-adv-x="1141" d="M63 1337q0 46 36 82q29 30 68 35q261 36 511 36q169 0 322 -22q107 -16 107 -86q0 -47 -28 -82q-505 -614 -762 -1122q193 19 379 19q197 0 372 -28q55 -9 55 -71q0 -19 -9 -40q-16 -40 -51 -60q-27 -16 -55 -16q-17 0 -46 4q-155 21 -316 21q-215 0 -342 -15.5 t-155 -15.5q-31 0 -50.5 18.5t-19.5 49.5q0 33 48 130q148 297 336.5 574.5t396.5 539.5q-110 11 -230 11q-241 0 -441 -27q-37 -5 -56 -5q-31 0 -50.5 19t-19.5 51z" />
<glyph unicode="[" horiz-adv-x="664" d="M100 -180l12 1787q1 113 108 113l279 -2q65 0 65 -66q0 -49 -43 -86q-30 -26 -65 -26h-185v-1609h228q35 0 53 -26q12 -17 12 -40q0 -50 -43 -86q-30 -26 -65 -26l-182 -1q-117 0 -136 7q-38 15 -38 61z" />
<glyph unicode="\" horiz-adv-x="622" d="M0 1433q0 20 9 37q17 30 56 30q32 0 61 -23t41 -61q207 -668 448 -1334q7 -18 7 -34q0 -35 -24 -54q-16 -13 -41 -13q-28 0 -56 19q-32 22 -46 60q-243 670 -451 1344q-4 16 -4 29z" />
<glyph unicode="]" horiz-adv-x="664" d="M100 -180q0 49 43 86q30 26 65 26h185v1609h-228q-35 0 -53 26q-12 17 -12 40q0 50 43 86q30 26 65 26l182 1q117 0 136 -7q38 -15 38 -61l-12 -1787q-1 -113 -108 -113l-279 2q-65 0 -65 66z" />
<glyph unicode="^" horiz-adv-x="935" d="M100 937q0 31 22 60q138 183 221 330l47 83q46 80 95 80q42 0 75 -63q116 -216 262 -409q13 -17 13 -38q0 -42 -33 -75t-70 -33q-64 0 -274 356q-95 -156 -215 -312q-35 -45 -81 -45q-20 0 -37 12q-25 17 -25 54z" />
<glyph unicode="_" horiz-adv-x="1189" d="M100 -231q0 47 40 83q30 26 65 27q756 21 818 21q35 0 54 -24q12 -17 12 -40q0 -50 -40 -86q-29 -25 -65 -26q-705 -21 -818 -21q-35 0 -53 23q-13 18 -13 43z" />
<glyph unicode="`" horiz-adv-x="573" d="M100 1497q0 28 22 52q29 31 63 31q19 0 33 -11q132 -101 243 -223q12 -12 12 -32q0 -28 -28 -56t-55 -28t-42 17q-105 114 -230 211q-18 14 -18 39z" />
<glyph unicode="a" horiz-adv-x="1349" d="M80 513q0 216 154 411q192 242 493 242q154 0 279 -67q5 12 14 23q36 44 83 44q23 0 44 -15t21 -52l-1 -196q0 -175 7 -394q7 -227 41 -391q4 -17 4 -27q0 -24 -15 -52.5t-51 -47.5q-20 -11 -42 -11q-52 0 -62 48q-15 73 -26 154q-104 -113 -232 -163q-101 -39 -201 -39 q-115 0 -228 53q-147 68 -222 217q-60 121 -60 263zM253 557q0 -89 39.5 -185.5t134.5 -155t198 -58.5q229 0 379 251q-9 175 -9 456q-132 123 -314 123q-185 0 -303 -126q-125 -130 -125 -305z" />
<glyph unicode="b" horiz-adv-x="1362" d="M166 760q0 637 48 692q34 38 80 38q25 0 42 -16q21 -18 21 -51q0 -16 -5 -91q-10 -183 -13 -364q103 110 229 159q101 39 201 39q115 0 228 -53q147 -68 222 -217q60 -121 60 -263q0 -217 -154 -411q-192 -242 -493 -242q-155 0 -279 67q-8 -17 -23 -32q-34 -35 -73 -35 q-61 0 -65 61q-26 356 -26 719zM338 711q2 -232 13 -419q136 -135 327 -135q185 0 303 126q125 131 125 305q0 90 -39.5 186.5t-134.5 154.5t-198 58q-231 0 -396 -276z" />
<glyph unicode="c" horiz-adv-x="1204" d="M80 538q0 288 192 471q173 157 415 157q222 0 383 -141q55 -49 55 -83q0 -44 -35.5 -78t-72.5 -34q-27 0 -49 21q-142 138 -332 138q-170 0 -259 -88q-125 -125 -125 -308q0 -160 102 -284q125 -153 332 -153q202 0 312 141q36 46 85 46q20 0 37 -11q28 -20 28 -55 q0 -33 -25 -64q-105 -129 -221 -182q-112 -51 -247 -51q-200 0 -340.5 99t-200.5 265q-34 91 -34 194z" />
<glyph unicode="d" horiz-adv-x="1365" d="M80 513q0 216 154 411q192 242 493 242q148 0 269 -62q-1 128 -1 274q0 35 25 67q35 45 84 45q22 0 43 -15.5t21 -52.5q0 -621 9 -901q8 -250 37 -397q4 -22 4 -33q0 -23 -15 -52q-9 -18 -26 -32q-31 -27 -67 -27q-51 0 -60 48q-14 73 -24 157q-105 -115 -235 -166 q-101 -39 -201 -39q-115 0 -228 53q-147 68 -222 217q-60 121 -60 263zM253 557q0 -89 39.5 -185.5t134.5 -155t198 -58.5q231 0 383 258q-7 144 -11 447q-133 125 -316 125q-185 0 -303 -126q-125 -130 -125 -305z" />
<glyph unicode="e" horiz-adv-x="1264" d="M80 538q0 288 192 471q173 157 415 157q254 0 395 -203q88 -129 88 -262q0 -130 -102 -138l-805 -70q22 -100 91 -184q125 -153 332 -153q202 0 312 141q36 46 85 46q20 0 37 -11q28 -20 28 -55q0 -33 -25 -64q-105 -129 -221 -182q-112 -51 -247 -51q-200 0 -340.5 99 t-200.5 265q-34 91 -34 194zM258 667l724 64q-26 94 -93 161q-99 96 -253 97q-170 0 -259 -88q-99 -99 -119 -234z" />
<glyph unicode="f" horiz-adv-x="816" d="M-98 -266q0 32 25 64q36 45 82 45q21 0 39 -12q43 -30 96 -47q20 -7 41 -7q44 0 63.5 46t19.5 209q0 210 -6.5 444t-6.5 351v15l-139 -2q-32 0 -51 17.5t-19 49.5q0 41 37 64q21 13 142 18q18 1 36 1q9 113 32 199q80 301 352 301q97 0 208 -79q26 -18 26 -55 q0 -32 -25 -64q-36 -45 -82 -45q-21 0 -39 12q-43 30 -96 47q-20 7 -41 7q-96 0 -130 -113q-22 -74 -31 -204q148 4 278 4q32 0 47 -18.5t15 -39.5q0 -42 -41 -72q-31 -22 -67 -23q-119 -2 -238 -3v-56q0 -125 6.5 -356t6.5 -439q0 -178 -89.5 -285.5t-216.5 -107.5 q-96 0 -208 79q-26 18 -26 55z" />
<glyph unicode="g" horiz-adv-x="1375" d="M80 533q0 125 63 261q75 163 200 252q170 120 382 120q162 0 283 -65q10 23 32 41q31 24 65 24q57 0 63 -60l31 -318q23 -236 23 -344q0 -107 -12.5 -245t-70 -279.5t-176.5 -230.5t-330 -89q-143 0 -243.5 45t-184.5 153q-11 14 -11 40q0 33 37.5 72t69.5 39t54 -27 q69 -88 162 -121q69 -24 156 -24q281 0 342 257q21 87 29 207q-180 -209 -435 -209q-248 0 -395 156q-134 143 -134 345zM252 575q0 -148 105 -253q111 -112 291 -112q206 0 327 188q36 56 68 131q-7 124 -27 342q-143 118 -337 118q-177 0 -281 -94q-146 -131 -146 -320z " />
<glyph unicode="h" horiz-adv-x="1338" d="M161 760q0 637 48 692q34 38 80 38q25 0 42 -16q21 -18 21 -51q0 -16 -4 -91q-10 -181 -13 -361q72 75 157 124q125 71 261 71q56 0 113 -13q304 -70 307 -453l4 -608q0 -36 -24 -67q-36 -45 -84 -45q-22 0 -43 15.5t-21 51.5l-2 608q0 226 -146 300q-70 35 -142 35 q-215 0 -381 -276q3 -295 19 -519q6 -76 6 -99q0 -46 -34 -81t-73 -35q-61 0 -66 61q-25 356 -25 719z" />
<glyph unicode="i" horiz-adv-x="532" d="M160 922v133q0 36 26 67q37 44 85 44q66 0 66 -66l-1 -97q0 -432 14 -772q4 -108 4 -137q0 -37 -24 -67q-36 -47 -88 -47q-42 0 -51 36q-31 125 -31 906zM171 1313v57q0 35 25 67q35 44 83 44q23 0 44 -15.5t21 -51.5l-1 -56q0 -37 -25 -67q-35 -44 -82 -44 q-23 0 -43.5 15t-21.5 51z" />
<glyph unicode="j" horiz-adv-x="552" d="M-249 -266q0 32 25 64q36 45 82 45q21 0 39 -12q43 -30 96 -47q20 -7 41 -7q97 0 130 113q37 125 37 412q0 200 -19 441q-16 260 -16 307q0 36 23 68q35 48 85 48q61 0 64 -63q37 -588 37 -840q0 -219 -38 -362q-80 -301 -352 -301q-96 0 -208 79q-26 18 -26 55z M171 1370q0 35 25 67q35 44 84 44q22 0 43 -15.5t21 -51.5l-1 -56q0 -37 -24 -67q-36 -44 -83 -44q-22 0 -43 15t-21 51z" />
<glyph unicode="k" horiz-adv-x="1052" d="M161 760q0 637 48 692q34 38 80 38q25 0 42 -16q21 -18 21 -51q0 -16 -4 -91q-15 -265 -15 -527v-103q79 54 163 126q176 155 304 314q19 24 50 24q37 0 70 -32q39 -36 39 -85q0 -25 -15 -46q-119 -159 -396 -367q190 -258 449 -496q32 -30 37 -54t5 -34q0 -26 -15 -46 q-21 -26 -55 -26q-37 0 -72 31q-281 259 -481 530q-42 -29 -79 -48q5 -162 16 -298q6 -76 6 -99q0 -46 -34 -81t-73 -35q-61 0 -66 61q-25 356 -25 719z" />
<glyph unicode="l" horiz-adv-x="749" d="M147 356q0 344 46 1027q2 38 28 68q35 39 81 39q24 0 41 -15q21 -18 21 -51q0 -19 -10 -165q-35 -534 -35 -870q0 -99 17 -159q19 -68 76 -68q67 0 188 107q33 29 70 29q31 0 49 -23q14 -18 14 -44q0 -44 -40 -83q-174 -168 -337 -168q-101 0 -155 88t-54 288z" />
<glyph unicode="m" horiz-adv-x="1894" d="M160 922v133q0 36 26 67q37 44 85 44q66 0 66 -66l-1 -105q47 49 101 88q113 83 251 83q161 0 252 -98q39 -41 62 -100q58 66 125 115q113 83 250 83q161 0 252 -98q96 -103 97 -311l1 -665q0 -36 -25 -67q-35 -45 -83 -45q-23 0 -43.5 16t-20.5 51v666q0 90 -29 162 q-12 31 -33 53q-55 61 -158 61q-78 0 -159 -61q-76 -56 -140 -173l1 -663q0 -36 -24 -67q-36 -45 -84 -45q-22 0 -43 16t-21 51v666q0 90 -28 162q-12 31 -33 53q-55 61 -158 61q-79 0 -160 -60.5t-149 -188.5q3 -276 13 -509q4 -108 4 -137q0 -37 -24 -67q-36 -47 -88 -47 q-42 0 -51 36q-31 125 -31 906z" />
<glyph unicode="n" d="M160 922v133q0 36 26 67q37 44 85 44q66 0 66 -66l-1 -117q182 183 406 183q56 0 113 -13q304 -70 307 -453l4 -608q0 -36 -24 -67q-36 -45 -84 -45q-22 0 -43 15.5t-21 51.5l-2 608q0 226 -146 300q-70 35 -142 35q-215 0 -367 -255q4 -273 13 -504q4 -108 4 -137 q0 -37 -24 -67q-36 -47 -88 -47q-42 0 -51 36q-31 125 -31 906z" />
<glyph unicode="o" horiz-adv-x="1345" d="M78 546q0 319 239 505q154 115 359 115q377 0 516 -308q59 -129 59 -261q0 -213 -123 -377q-181 -240 -476 -240q-254 0 -412 163q-162 175 -162 403zM250 596q0 -154 104 -284q124 -155 336 -155q222 0 333 182q53 86 53 204q0 44 -8 91q-30 173 -141 262 q-117 93 -294 93q-141 0 -233 -70q-150 -118 -150 -323z" />
<glyph unicode="p" horiz-adv-x="1370" d="M160 403q0 656 48 713q34 39 80 39q25 0 42 -16q21 -19 21 -53q0 -16 -6 -107q99 101 218 148q101 39 201 39q115 0 228 -53q147 -68 222 -217q60 -121 60 -263q0 -217 -154 -411q-192 -242 -493 -242q-160 0 -287 72q4 -124 12 -231q6 -78 6 -101q0 -48 -34 -84t-73 -36 q-61 0 -65 63q-26 367 -26 740zM333 450q0 -76 1 -155q146 -138 339 -138q185 0 303 126q125 131 125 305q0 90 -39.5 186.5t-134.5 154.5t-198 58q-231 0 -393 -268q-3 -137 -3 -269z" />
<glyph unicode="q" horiz-adv-x="1366" d="M80 513q0 216 154 411q192 242 493 242q155 0 280 -68q6 11 14 22q35 46 84 46q22 0 43 -16t21 -54q0 -644 9 -934q8 -260 37 -412q4 -23 4 -34q0 -25 -15 -55q-9 -18 -26 -33q-31 -28 -67 -28q-51 0 -60 50q-38 205 -46 513q-97 -98 -214 -144q-101 -39 -201 -39 q-115 0 -228 53q-147 68 -222 217q-60 121 -60 263zM253 557q0 -89 39.5 -185.5t134.5 -155t198 -58.5q226 0 375 244q-3 197 -4 462q-132 124 -315 124q-185 0 -303 -126q-125 -130 -125 -305z" />
<glyph unicode="r" horiz-adv-x="1090" d="M155 1054q0 36 25 68q36 44 83 44q23 0 44 -15t21 -52l-1 -116q153 183 354 183q348 0 348 -412q0 -34 -24 -64q-35 -44 -84 -44q-65 0 -65 67q0 278 -215 278q-180 0 -313 -255q2 -107 6 -227q7 -231 38 -374q7 -34 7 -44q0 -24 -15 -52.5t-51 -47.5q-20 -11 -42 -11 q-52 0 -62 48q-40 193 -48 447q-6 203 -6 579z" />
<glyph unicode="s" horiz-adv-x="1115" d="M68 192q0 36 30 71q35 41 77 41q24 0 43 -15q98 -77 232 -112q71 -19 144 -19q173 0 236 70q23 26 23 62q0 92 -109 132q-81 29 -189 51q-115 24 -224 63q-226 80 -226 288q0 133 114.5 237.5t333.5 104.5q199 0 343 -82q43 -25 90 -64q24 -19 24 -52q0 -38 -29 -70 q-36 -40 -79 -40q-23 0 -42 15q-48 37 -94 61q-99 54 -275 54q-213 0 -213 -125q0 -114 158 -164q78 -25 171.5 -44t183 -47t152.5 -80q80 -66 80 -192q0 -114 -77 -207q-39 -48 -96 -80q-124 -69 -300 -69q-255 0 -459 163q-23 18 -23 49z" />
<glyph unicode="t" horiz-adv-x="907" d="M78 907q0 41 37 64q20 12 128 17l18 295q2 38 28 68q35 39 81 39q24 0 41 -15q21 -18 21 -51q0 -19 -10 -165l-10 -164q179 5 333 5q32 0 47 -18.5t15 -39.5q0 -42 -41 -72q-31 -22 -67 -23l-294 -4q-12 -260 -12 -454q0 -113 27 -170t95 -57q88 0 209 107q33 29 70 29 q31 0 49 -23q14 -18 14 -44q0 -44 -40 -83q-174 -168 -337 -168q-134 0 -196.5 95.5t-62.5 280.5q0 190 14 485l-87 -1q-32 0 -51 17.5t-19 49.5z" />
<glyph unicode="u" d="M145 1055q0 36 25 67q35 44 83 44q64 0 64 -66l1 -609q1 -226 147 -300q70 -35 142 -35q220 0 374 267q-8 208 -8 631q0 36 25 68q36 44 83 44q23 0 44 -15t21 -52l-1 -196q0 -175 7 -394q7 -227 41 -391q4 -17 4 -27q0 -24 -15 -52.5t-51 -47.5q-20 -11 -42 -11 q-52 0 -62 48q-16 76 -27 162q-77 -86 -170 -139q-125 -71 -261 -71q-56 0 -113 13q-304 69 -307 453z" />
<glyph unicode="v" horiz-adv-x="1207" d="M66 1054q0 28 19 58.5t55 45.5q18 7 35 7q54 0 62 -54q46 -300 154 -587q126 -334 227 -365q16 8 63 74q122 172 235 549q52 177 76 291q8 38 37.5 65.5t67.5 27.5q33 0 51 -23q14 -18 14 -43q0 -9 -2 -19q-49 -241 -155 -532q-147 -402 -312 -528q-53 -41 -110 -41 q-42 0 -84 24q-159 90 -286 460q-87 254 -132 495q-15 80 -15 95z" />
<glyph unicode="w" horiz-adv-x="1735" d="M109 1054q0 35 22 65q35 47 86 47q61 0 64 -63q34 -719 192 -908q32 -38 49 -38q39 0 94 120q25 56 50 131q74 229 115 489q11 76 15.5 134t26.5 88q35 47 86 47q61 0 64 -63q34 -719 192 -908q32 -38 49 -38q39 0 94 120q25 56 48 132q90 300 139 656q5 38 33 66 q33 34 72 34q30 0 48 -19t18 -49q0 -24 -4 -47l-19 -111q-112 -712 -323 -904q-60 -55 -134 -55q-140 0 -223 171q-66 136 -105 343q-95 -337 -230 -459q-60 -55 -134 -55q-140 0 -223 171q-107 219 -143 626q-19 211 -19 277z" />
<glyph unicode="x" horiz-adv-x="1125" d="M57 47q0 37 27 69l366 439l-378 449q-15 19 -15 45q0 51 36 81t71 30q31 0 50 -22l363 -431l348 418q34 41 81 41q23 0 41 -15q24 -19 24 -53q0 -36 -27 -69l-368 -440l379 -453q16 -20 16 -45q0 -51 -33.5 -81t-75.5 -30q-29 0 -47 22l-366 435l-347 -415 q-36 -42 -81 -42q-22 0 -40 14q-24 20 -24 53z" />
<glyph unicode="y" horiz-adv-x="1324" d="M141 -162q0 33 37.5 72t69.5 39t54 -27q69 -88 162 -121q69 -24 156 -24q281 0 342 257q19 81 27 191q-71 -74 -155 -122q-125 -71 -261 -71q-56 0 -113 13q-304 69 -307 453l-4 557q0 36 25 67q35 44 83 44q64 0 64 -66l2 -557q0 -226 146 -300q70 -35 142 -35 q220 0 381 277q-7 145 -32 400q-13 136 -13 174q0 50 40 83q31 24 65 24q57 0 63 -60l31 -318q23 -236 23 -344q0 -107 -12.5 -245t-70 -279.5t-176.5 -230.5t-330 -89q-143 0 -243.5 45t-184.5 153q-11 14 -11 40z" />
<glyph unicode="z" horiz-adv-x="1132" d="M55 50q0 80 468 569q191 199 325 359q-106 10 -226 10q-216 0 -414 -24q-70 -8 -84 -8q-28 0 -46 18t-18 49q0 41 33 75q27 28 63 33q263 35 511 35q198 0 373 -30q27 -5 41 -25q10 -15 10 -37q0 -83 -443 -541q-192 -199 -327 -359q177 16 346 16q198 0 373 -30 q33 -6 46 -35q6 -13 6 -27q0 -19 -9 -40q-16 -37 -48 -57q-25 -15 -51 -15q-15 0 -28 2q-149 24 -333 24q-216 0 -414 -24q-71 -8 -84 -8q-33 0 -55 26q-15 18 -15 44z" />
<glyph unicode="{" horiz-adv-x="913" d="M100 713q0 83 96 116q36 12 68 38q56 44 56 182q0 45 -7 104q-13 122 -13 192q0 143 58 228t204 123q85 22 186 22q35 0 53 -25q12 -16 12 -41q0 -49 -43 -86q-30 -26 -74 -26q-139 0 -194 -44q-31 -25 -31 -104q0 -80 14 -198q9 -74 9 -118q0 -208 -135 -324 q127 -91 146 -281q6 -57 6 -109q0 -69 -7 -129q-6 -52 -6 -97q0 -31 5 -77.5t59 -84.5t186 -42q35 -1 53 -27q12 -17 12 -40q0 -50 -43 -86q-29 -25 -62 -25q-226 0 -312 101q-67 80 -67 259q0 62 3 104q6 67 6 125q0 25 -3 76q-7 146 -171 220q-64 29 -64 74z" />
<glyph unicode="|" horiz-adv-x="648" d="M250 -273v1917q0 31 22 58q29 38 72 38q19 0 36.5 -13.5t17.5 -43.5v-1918q0 -31 -21 -57q-30 -38 -72 -38q-19 0 -37 13t-18 44z" />
<glyph unicode="}" horiz-adv-x="913" d="M100 -180q0 49 43 86q30 26 74 26q139 0 194 44q31 25 31 104q0 80 -14 198q-9 74 -9 118q0 208 135 324q-127 91 -146 281q-6 57 -6 109q0 69 7 129q6 52 6 97q0 31 -5 77.5t-59 84.5t-186 42q-35 1 -53 27q-12 17 -12 40q0 50 43 86q29 25 62 25q226 0 312 -101 q67 -80 67 -259q0 -62 -3 -104q-6 -67 -6 -125q0 -25 3 -76q7 -146 171 -220q64 -29 64 -74q0 -83 -96 -116q-36 -12 -68 -38q-56 -44 -56 -182q0 -45 7 -104q13 -122 13 -192q0 -143 -58 -228t-204 -123q-85 -22 -186 -22q-35 0 -53 25q-12 16 -12 41z" />
<glyph unicode="~" horiz-adv-x="1190" d="M100 632q0 19 19 60q91 205 209 235q34 9 68 9q103 0 267 -108q122 -80 172 -80q46 0 92 101q17 37 49 56q24 15 49 15t45 -16q20 -17 20 -50q0 -19 -10 -41q-81 -166 -168 -213q-54 -30 -111 -30q-106 0 -285 124q-93 65 -151 65q-60 0 -101 -116q-14 -38 -46 -59 q-26 -17 -53 -17q-26 0 -42 14q-23 19 -23 51z" />
<glyph unicode="&#xa1;" horiz-adv-x="580" d="M200 998v44q0 43 29 77q40 47 97 47q26 0 50 -16.5t24 -54.5v-41q0 -46 -29 -79q-41 -48 -98 -48q-25 0 -49 16.5t-24 54.5zM208 -276v1030q0 38 26 71q38 48 90 48q24 0 46.5 -16.5t22.5 -55.5v-1029q0 -39 -27 -72q-38 -48 -88 -48q-25 0 -47.5 17t-22.5 55z" />
<glyph unicode="&#xa2;" horiz-adv-x="1278" d="M160 538q0 288 192 471q173 157 415 157q20 0 39 -1l31 98q12 38 41.5 61t61.5 23q39 0 55 -30q10 -17 10 -37q0 -14 -41 -146q101 -35 186 -109q55 -49 55 -83q0 -44 -35.5 -78t-72.5 -34q-27 0 -49 21q-66 64 -143 99q-125 -390 -262 -779q58 -15 123 -15 q202 0 312 141q36 46 85 46q20 0 37 -11q28 -20 28 -55q0 -33 -25 -64q-105 -129 -221 -182q-112 -51 -247 -51q-82 0 -154 17l-32 -90q-14 -38 -46 -60q-27 -19 -55 -19q-25 0 -41 13q-24 19 -24 54q0 16 6 34l45 125q-171 98 -240 290q-34 91 -34 194zM332 593 q0 -160 102 -284q31 -38 67 -66q130 372 249 745l-34 1q-170 0 -259 -88q-125 -125 -125 -308z" />
<glyph unicode="&#xa3;" horiz-adv-x="1179" d="M100 612q0 47 31 83q22 26 49 27l87 3q-31 169 -31 265q0 190 96 319q135 181 355 181q239 0 353 -223q7 -14 7 -28q0 -64 -63 -103q-27 -16 -51 -16q-43 0 -67 43q-76 136 -225 136q-119 0 -180 -97q-39 -64 -39 -160q0 -115 39 -310q310 11 345 11q26 0 41 -24 q9 -17 9 -40q0 -50 -31 -86q-22 -25 -49 -26l-284 -11q6 -49 6 -87q0 -157 -70 -274q125 16 247 16q35 0 130 -3.5t229 -48.5q45 -14 45 -63q0 -25 -14 -53q-21 -39 -57 -56q-22 -11 -44 -11q-13 0 -26 4q-137 41 -307 41q-8 0 -101.5 -1.5t-256.5 -32.5q-52 -10 -66 -10 q-55 0 -55 73q0 62 52 113q31 30 60 74q48 72 48 188q0 49 -12 125q-114 -4 -150 -4q-26 0 -40 23q-10 18 -10 43z" />
<glyph unicode="&#xa4;" horiz-adv-x="1275" d="M100 1180q0 46 32 78q35 35 75 35q28 0 47 -19l188 -188q98 63 233 63q110 0 194 -59l169 168q34 35 73 35q27 0 45 -20t18 -45q0 -51 -32 -83l-168 -168q55 -87 55 -192q0 -116 -61 -224l188 -188q19 -19 19 -48q0 -46 -33 -77q-35 -35 -76 -35q-26 0 -45 18l-189 189 q-96 -61 -213 -61q-122 0 -209 55l-170 -170q-32 -31 -74 -31q-29 0 -47 19.5t-18 47.5q0 48 33 80l167 166q-58 93 -58 210q0 110 63 210l-186 187q-20 19 -20 47zM432 771q0 -86 57 -147q68 -73 175 -73q72 0 124 43.5t52 130.5q0 22 -4 46q-31 180 -229 180 q-85 0 -130 -49t-45 -131z" />
<glyph unicode="&#xa5;" horiz-adv-x="1176" d="M100 292q0 46 36 81q26 25 58 26l254 7v141q-231 -7 -289 -7q-59 0 -59 64q0 45 36 80q26 25 58 26l142 4q-63 102 -106 205q-59 141 -95 321q-24 117 -24 137q0 27 19 58t58 47q20 8 38 8q56 0 66 -58q36 -215 98.5 -373.5t170.5 -311.5q117 159 195 316t141 341 q14 40 48 65q29 21 63 21q30 0 49 -20.5t19 -50.5q0 -16 -6 -34q-80 -234 -179 -420q-62 -117 -146 -239q154 4 180 4q31 0 48 -23q11 -16 11 -39q0 -48 -36 -82q-26 -25 -58 -26l-254 -8l-1 -140q256 7 290 7q31 0 48 -23q11 -16 11 -39q0 -48 -36 -82q-26 -25 -58 -26 l-257 -8l-1 -146q0 -38 -26 -71q-38 -48 -91 -48q-23 0 -45 16.5t-22 54.5v189q-231 -7 -289 -7q-32 0 -48 22q-11 17 -11 41z" />
<glyph unicode="&#xa6;" horiz-adv-x="648" d="M250 -273v817q0 31 22 58q29 38 72 38q19 0 36.5 -13.5t17.5 -43.5v-818q0 -31 -21 -57q-30 -38 -72 -38q-19 0 -37 13t-18 44zM250 827v817q0 31 22 58q29 38 72 38q19 0 36.5 -13.5t17.5 -43.5v-818q0 -31 -21 -57q-30 -38 -72 -38q-19 0 -37 13t-18 44z" />
<glyph unicode="&#xa7;" horiz-adv-x="1170" d="M100 596q0 158 190 326q-36 63 -36 135q0 123 68.5 199t170 109t198.5 33q130 0 240 -38q42 -14 42 -62q0 -22 -13 -47q-18 -36 -51 -53q-22 -11 -44 -11q-11 0 -68 16t-157 16q-115 0 -166.5 -40.5t-51.5 -93.5q0 -97 324 -237.5t324 -321.5q0 -157 -190 -326 q36 -63 36 -135q0 -123 -68.5 -199t-170 -109t-198.5 -33q-130 0 -240 38q-42 14 -42 62q0 22 13 47q18 36 51 53q22 11 44 11q11 0 68 -16t157 -16q115 0 166.5 40.5t51.5 93.5q0 97 -324 237.5t-324 321.5zM277 646q0 -98 320 -233q111 -47 183 -103q113 69 113 166 q0 98 -319 233q-112 47 -184 103q-113 -69 -113 -166z" />
<glyph unicode="&#xa8;" horiz-adv-x="645" d="M100 1313v57q0 35 25 67q35 44 83 44q23 0 44 -15.5t21 -51.5l-1 -56q0 -37 -25 -67q-35 -44 -82 -44q-23 0 -43.5 15t-21.5 51zM373 1313v57q0 35 25 67q35 44 83 44q23 0 44 -15.5t21 -51.5l-1 -56q0 -37 -25 -67q-35 -44 -82 -44q-23 0 -43.5 15t-21.5 51z" />
<glyph unicode="&#xa9;" horiz-adv-x="1615" d="M76 723q0 167 75 340q100 227 274 327.5t373 100.5q307 0 497 -184q183 -178 210 -484q3 -39 3 -77q0 -191 -76 -356t-226 -274q-193 -140 -429 -140q-136 0 -272 54q-176 70 -288.5 232t-135.5 373q-5 44 -5 88zM211 761q0 -257 118 -411.5t291 -209.5q96 -30 191 -30 q79 0 204 32.5t242 179.5t117 402q0 284 -161.5 456.5t-438.5 172.5q-280 0 -426 -179q-137 -167 -137 -413zM427 706q0 55 17 115q44 162 161 233q102 63 216 63q143 0 250 -91q14 -12 26 -25.5t12 -33.5q0 -38 -26.5 -61.5t-55.5 -23.5q-23 0 -39 15q-77 86 -204 86 q-73 0 -136 -47q-87 -64 -87 -181q0 -196 173 -257q45 -16 92 -16q109 0 181 83q28 35 66 35q15 0 27 -10q22 -14 22 -43q0 -24 -19 -47q-68 -84 -143 -118.5t-164 -34.5q-127 0 -218 64t-130 171q-21 59 -21 124z" />
<glyph unicode="&#xab;" horiz-adv-x="1283" d="M100 603q0 57 82 133l344 321q31 29 73 29q29 0 46 -20.5t17 -45.5q0 -46 -38 -81l-314 -298l347 -360q19 -21 19 -49q0 -39 -34.5 -74.5t-75.5 -35.5q-26 0 -45 19q-401 402 -418 445q-3 8 -3 17zM606 603q0 57 82 133l344 321q31 29 73 29q29 0 46 -20.5t17 -45.5 q0 -46 -38 -81l-314 -298l347 -360q19 -21 19 -49q0 -39 -34.5 -74.5t-75.5 -35.5q-26 0 -45 19q-401 402 -418 445q-3 8 -3 17z" />
<glyph unicode="&#xac;" horiz-adv-x="1191" d="M100 685q0 49 41 84q29 25 65 26q745 24 785 24q76 0 92 -42q8 -20 8 -210q0 -75 -1 -132v-53q0 -36 -25 -67q-36 -44 -83 -44q-23 0 -44 15.5t-21 50.5v301q-683 -18 -750 -18q-36 0 -54 23q-13 17 -13 42z" />
<glyph unicode="&#xad;" horiz-adv-x="1035" d="M100 541q0 48 40 84q29 25 65 26q134 6 299 11q126 4 221.5 8t142.5 4q36 0 54 -25q13 -17 13 -41q0 -49 -40 -84q-29 -26 -65 -27q-615 -21 -666 -21q-34 0 -51 23q-13 17 -13 42z" />
<glyph unicode="&#xae;" horiz-adv-x="1632" d="M100 723q0 167 75 340q100 227 274 327.5t373 100.5q307 0 497 -184q183 -178 210 -484q3 -39 3 -77q0 -191 -76 -356t-226 -274q-193 -140 -429 -140q-136 0 -272 54q-176 70 -288.5 232t-135.5 373q-5 44 -5 88zM235 761q0 -257 118 -411.5t291 -209.5q96 -30 191 -30 q79 0 204 32.5t242 179.5t117 402q0 284 -161.5 456.5t-438.5 172.5q-280 0 -426 -179q-137 -167 -137 -413zM532 856q0 88 3 178q1 29 20 52q26 31 63 31q17 0 32 -12t15 -38l-1 -59q114 109 252 109q109 0 162 -53.5t53 -133.5q0 -135 -137 -242q-63 -48 -129 -71 q105 -123 199 -133q27 -2 40 -22q9 -15 9 -32q0 -36 -31 -63q-21 -18 -48 -18q-89 0 -183 76t-154 157q-23 29 -23 62q0 30 39 59q18 12 57.5 19.5t86.5 23.5t93 57q49 46 49 92q0 35 -30.5 60.5t-84.5 25.5q-117 0 -202 -114q-9 -13 -13 -31t-4 -39q7 -278 8 -293 q4 -36 4 -72q0 -28 -12 -44q-27 -41 -69 -41q-45 0 -49 45q-15 230 -15 464z" />
<glyph unicode="&#xaf;" horiz-adv-x="1035" d="M100 1432q0 48 40 84q29 25 65 26q134 6 299 11q126 4 221.5 8t142.5 4q36 0 54 -25q13 -17 13 -41q0 -49 -40 -84q-29 -26 -65 -27q-615 -21 -666 -21q-34 0 -51 23q-13 17 -13 42z" />
<glyph unicode="&#xb0;" horiz-adv-x="713" d="M100 1187q0 93 52 174q27 42 69 70q69 46 152 46q81 0 146 -46q51 -36 76 -114q18 -55 18 -104q0 -52 -28 -119.5t-106 -117.5q-71 -45 -150 -45q-104 0 -171 82q-58 71 -58 174zM245 1217q0 -51 32 -85q44 -48 100 -48q51 0 73 43q13 28 13 65q0 50 -31 91t-96 41 q-46 0 -68.5 -29.5t-22.5 -77.5z" />
<glyph unicode="&#xb1;" horiz-adv-x="1190" d="M100 67q0 47 41 84q29 25 65 26q723 21 817 21q37 0 54 -24q13 -17 13 -42q0 -47 -40 -83q-30 -26 -66 -27q-728 -22 -817 -22q-36 0 -54 25q-13 17 -13 42zM100 688q0 47 41 84q29 25 65 26l302 9l-4 288q0 33 22 62q34 45 83 45q22 0 42.5 -14.5t21.5 -50.5l7 -326 q286 8 343 8q37 0 54 -24q13 -17 13 -42q0 -47 -41 -83q-29 -26 -65 -27l-301 -9l4 -284q0 -36 -24 -67q-35 -45 -84 -45q-22 0 -42 14.5t-21 50.5l-5 326q-290 -8 -344 -8q-36 0 -54 25q-13 17 -13 42z" />
<glyph unicode="&#xb2;" horiz-adv-x="687" d="M65 789q0 28 58 69q144 102 245.5 211.5t101.5 191.5q0 106 -117 106q-70 0 -141 -51q-22 -16 -49 -16q-30 0 -44 17t-14 33q0 30 32 54q60 48 123 68q56 18 122 18q99 0 157 -51q68 -61 68 -156q0 -61 -34 -131q-73 -148 -246 -283l-4 -1q0 -1 56 -1q110 0 185 -16 q43 -9 43 -47q0 -41 -43 -64q-18 -8 -37 -8l-22 1q-62 10 -152 10q-125 0 -189 -8q-18 -3 -36 -3q-27 0 -45 16.5t-18 40.5z" />
<glyph unicode="&#xb3;" horiz-adv-x="759" d="M80 939q0 42 45 63q17 9 35 9q43 0 55 -36q41 -119 186 -119q57 0 83 20q18 14 29 46q8 22 8 40q0 57 -62 85q-51 24 -105 24q-32 0 -59.5 9t-27.5 43q0 39 37 59q25 15 57 24q17 4 30 10q96 42 96 94q0 43 -66 55q-16 2 -33 2q-76 0 -141 -49q-25 -18 -53 -18 q-29 0 -45 21q-11 13 -11 29q0 30 29 53q62 49 124 69q58 18 123 18q67 0 120 -26t77 -72q14 -27 14 -59q0 -24 -8 -51q-24 -81 -83 -119q93 -28 119 -134q6 -23 6 -47q0 -143 -140 -215q-69 -36 -143 -36q-93 0 -168 42q-93 52 -123 139q-5 16 -5 27z" />
<glyph unicode="&#xb4;" horiz-adv-x="572" d="M100 1279q0 57 268 280q26 21 54 21q24 0 39 -18q11 -14 11 -31q0 -39 -41 -72q-112 -92 -215 -199q-29 -30 -65 -30q-18 0 -32 11q-19 14 -19 38z" />
<glyph unicode="&#xb5;" d="M145 -273v1328q0 36 25 67q35 44 83 44q64 0 64 -66l1 -609q1 -226 147 -300q70 -35 142 -35q220 0 374 267q-8 208 -8 631q0 36 25 68q36 44 83 44q23 0 44 -15t21 -52l-1 -196q0 -175 7 -394q7 -227 41 -391q4 -17 4 -27q0 -24 -15 -52.5t-51 -47.5q-20 -11 -42 -11 q-52 0 -62 48q-16 76 -27 162q-77 -86 -170 -139q-125 -71 -261 -71q-56 0 -113 13q-97 22 -163 76v-304q0 -31 -21 -57q-30 -38 -72 -38q-19 0 -37 13t-18 44z" />
<glyph unicode="&#xb6;" horiz-adv-x="1280" d="M100 971q0 68 26 167t121 197.5t248 129.5q72 14 233 14q208 0 393 -5q33 -1 46 -20.5t13 -39.5q0 -48 -39 -81q-28 -24 -62 -24q-32 0 -104 2l5 -1399q0 -34 -22 -62q-33 -42 -78 -42q-21 0 -39.5 14t-18.5 48l-7 1444q-80 0 -142 -1q-2 -225 -2 -449q0 -476 7 -951 q0 -34 -22 -63q-32 -42 -77 -42q-21 0 -40 13.5t-20 47.5q-6 332 -7 665q-173 14 -270 103q-142 129 -142 334zM259 1016q0 -127 89 -225q58 -64 163 -86v118q0 241 3 482q-151 -15 -216 -135q-39 -72 -39 -154z" />
<glyph unicode="&#xb7;" horiz-adv-x="508" d="M100 704v35q0 39 25 67q34 41 83 41q21 0 41.5 -14t20.5 -47v-36q0 -38 -25 -66q-34 -40 -82 -40q-22 0 -42.5 14t-20.5 46z" />
<glyph unicode="&#xb8;" horiz-adv-x="588" d="M100 -314q0 25 19 45q22 27 48 27q16 0 29 -10q31 -23 83 -39q22 -7 44 -7q27 0 41 8.5t14 20.5q0 44 -150 99q-51 19 -51 47q0 63 122 197l23 26q24 27 54 27q14 0 26 -9q16 -12 16 -34q0 -24 -28 -57q-41 -50 -76 -97q174 -60 174 -188q0 -48 -49.5 -95t-139.5 -47 q-97 0 -183 56q-16 10 -16 30z" />
<glyph unicode="&#xb9;" horiz-adv-x="599" d="M47 1164q0 31 26 54q87 75 170 159q44 44 89 88q27 26 62 26q8 0 17 -2q38 -10 38 -50l-2 -27q-16 -176 -16 -400q0 -84 1 -134.5t1 -71.5q0 -23 -18 -45q-24 -29 -63 -29q-18 0 -38.5 11t-20.5 39v120q0 260 7 364q-148 -153 -196 -153q-27 0 -44 18q-13 15 -13 33z" />
<glyph unicode="&#xbb;" horiz-adv-x="1283" d="M100 975q0 40 34.5 75.5t75.5 35.5q26 0 45 -19q401 -402 418 -445q3 -9 3 -18q0 -57 -82 -133l-344 -320q-31 -29 -72 -29q-29 0 -46.5 20.5t-17.5 44.5q0 47 38 82l314 298l-347 360q-19 20 -19 48zM606 975q0 40 34.5 75.5t75.5 35.5q26 0 45 -19q401 -402 418 -445 q3 -9 3 -18q0 -57 -82 -133l-344 -320q-31 -29 -72 -29q-29 0 -46.5 20.5t-17.5 44.5q0 47 38 82l314 298l-347 360q-19 20 -19 48z" />
<glyph unicode="&#xbc;" horiz-adv-x="1501" d="M47 1164q0 31 26 54q87 75 170 159q44 44 89 88q27 26 62 26q8 0 17 -2q38 -10 38 -50l-2 -27q-16 -176 -16 -400q0 -84 1 -134.5t1 -71.5q0 -23 -18 -45q-24 -29 -63 -29q-18 0 -38.5 11t-20.5 39v120q0 260 7 364q-148 -153 -196 -153q-27 0 -44 18q-13 15 -13 33z M299 35q0 66 12 129q40 199 168 393q75 114 161 225q106 137 200 288.5t146 340.5q9 33 34 56t56 23q29 0 44 -22q11 -17 11 -36q0 -9 -6 -36q-52 -218 -197 -435q-79 -118 -166 -229q-121 -155 -213 -314q-95 -166 -101 -345q-1 -30 -23 -58q-30 -39 -70 -39q-20 0 -38 14 t-18 45zM831 188q0 16 11 38q20 38 144 212q104 147 220 288q26 32 66 32q21 0 38.5 -13t17.5 -38q-1 -94 -1 -189q0 -173 2 -237q12 -1 43.5 -3.5t42.5 -24.5q6 -12 6 -24q0 -37 -36 -60q-21 -11 -49 -11l-2 -1h1q5 -55 5 -84q0 -21 -14.5 -41t-41.5 -28q-12 -4 -24 -4 q-51 0 -55 45l-8 117q-164 0 -280 -16q-12 -2 -23 -2q-29 0 -48 14q-15 11 -15 30zM1023 278q90 7 169 7q-1 28 -2 228q-78 -101 -167 -235z" />
<glyph unicode="&#xbd;" horiz-adv-x="1518" d="M47 1164q0 31 26 54q87 75 170 159q44 44 89 88q27 26 62 26q8 0 17 -2q38 -10 38 -50l-2 -27q-16 -176 -16 -400q0 -84 1 -134.5t1 -71.5q0 -23 -18 -45q-24 -29 -63 -29q-18 0 -38.5 11t-20.5 39v120q0 260 7 364q-148 -153 -196 -153q-27 0 -44 18q-13 15 -13 33z M299 35q0 66 12 129q40 199 168 393q75 114 161 225q106 137 200 288.5t146 340.5q9 33 34 56t56 23q29 0 44 -22q11 -17 11 -36q0 -9 -6 -36q-52 -218 -197 -435q-79 -118 -166 -229q-121 -155 -213 -314q-95 -166 -101 -345q-1 -30 -23 -58q-30 -39 -70 -39q-20 0 -38 14 t-18 45zM896 57q0 28 58 69q144 102 245.5 211.5t101.5 191.5q0 106 -117 106q-70 0 -141 -51q-22 -16 -49 -16q-30 0 -44 17t-14 33q0 30 32 54q60 48 123 68q56 18 122 18q99 0 157 -51q68 -61 68 -156q0 -61 -34 -131q-73 -148 -246 -283l-4 -1q0 -1 56 -1q110 0 185 -16 q43 -9 43 -47q0 -41 -43 -64q-18 -8 -37 -8l-22 1q-62 10 -152 10q-125 0 -189 -8q-18 -3 -36 -3q-27 0 -45 16.5t-18 40.5z" />
<glyph unicode="&#xbe;" horiz-adv-x="1661" d="M80 939q0 42 45 63q17 9 35 9q43 0 55 -36q41 -119 186 -119q57 0 83 20q18 14 29 46q8 22 8 40q0 57 -62 85q-51 24 -105 24q-32 0 -59.5 9t-27.5 43q0 39 37 59q25 15 57 24q17 4 30 10q96 42 96 94q0 43 -66 55q-16 2 -33 2q-76 0 -141 -49q-25 -18 -53 -18 q-29 0 -45 21q-11 13 -11 29q0 30 29 53q62 49 124 69q58 18 123 18q67 0 120 -26t77 -72q14 -27 14 -59q0 -24 -8 -51q-24 -81 -83 -119q93 -28 119 -134q6 -23 6 -47q0 -143 -140 -215q-69 -36 -143 -36q-93 0 -168 42q-93 52 -123 139q-5 16 -5 27zM459 35q0 66 12 129 q40 199 168 393q75 114 161 225q106 137 200 288.5t146 340.5q9 33 34 56t56 23q29 0 44 -22q11 -17 11 -36q0 -9 -6 -36q-52 -218 -197 -435q-79 -118 -166 -229q-121 -155 -213 -314q-95 -166 -101 -345q-1 -30 -23 -58q-30 -39 -70 -39q-20 0 -38 14t-18 45zM991 188 q0 16 11 38q20 38 144 212q104 147 220 288q26 32 66 32q21 0 38.5 -13t17.5 -38q-1 -94 -1 -189q0 -173 2 -237q12 -1 43.5 -3.5t42.5 -24.5q6 -12 6 -24q0 -37 -36 -60q-21 -11 -49 -11l-2 -1h1q5 -55 5 -84q0 -21 -14.5 -41t-41.5 -28q-12 -4 -24 -4q-51 0 -55 45l-8 117 q-164 0 -280 -16q-12 -2 -23 -2q-29 0 -48 14q-15 11 -15 30zM1183 278q90 7 169 7q-1 28 -2 228q-78 -101 -167 -235z" />
<glyph unicode="&#xbf;" horiz-adv-x="940" d="M0 57q0 210 128 397q122 179 367 385q31 27 65 27t52 -26q13 -18 13 -40q0 -47 -43 -83q-216 -185 -317 -337q-93 -141 -93 -279q0 -88 46 -165q38 -63 123 -88q45 -13 99 -13q154 0 299 114q33 26 69 26q33 0 51 -24q13 -18 13 -42q0 -45 -42 -81q-112 -96 -222 -134 q-100 -35 -214 -35q-207 0 -308 129q-86 110 -86 269zM491 998v44q0 43 29 77q40 47 97 47q26 0 50 -16.5t24 -54.5v-41q0 -46 -29 -79q-41 -48 -98 -48q-25 0 -49 16.5t-24 54.5z" />
<glyph unicode="&#xc0;" horiz-adv-x="1389" d="M96 48q0 101 9.5 267.5t38.5 358t88 368t157 298t246 146.5q26 4 51 4q121 0 220.5 -89t171 -258.5t113 -367t59.5 -379t18 -301.5q0 -38 -26 -71q-38 -48 -89 -48q-24 0 -46.5 17t-22.5 55q-2 219 -34 439q-147 8 -294 8q-224 0 -455 -22q-20 -196 -20 -378 q0 -38 -26 -71q-38 -48 -90 -48q-24 0 -46.5 17t-22.5 55zM324 661q240 25 475 25q108 0 215 -6q-46 210 -122 373q-88 188 -199 239q-25 12 -51 12q-40 0 -81 -30q-160 -112 -229 -561zM433 1821q0 28 22 52q29 31 63 31q19 0 33 -11q132 -101 243 -223q12 -12 12 -32 q0 -28 -28 -56t-55 -28t-42 17q-105 114 -230 211q-18 14 -18 39z" />
<glyph unicode="&#xc1;" horiz-adv-x="1389" d="M96 48q0 101 9.5 267.5t38.5 358t88 368t157 298t246 146.5q26 4 51 4q121 0 220.5 -89t171 -258.5t113 -367t59.5 -379t18 -301.5q0 -38 -26 -71q-38 -48 -89 -48q-24 0 -46.5 17t-22.5 55q-2 219 -34 439q-147 8 -294 8q-224 0 -455 -22q-20 -196 -20 -378 q0 -38 -26 -71q-38 -48 -90 -48q-24 0 -46.5 17t-22.5 55zM324 661q240 25 475 25q108 0 215 -6q-46 210 -122 373q-88 188 -199 239q-25 12 -51 12q-40 0 -81 -30q-160 -112 -229 -561zM558 1603q0 57 268 280q26 21 54 21q24 0 39 -18q11 -14 11 -31q0 -39 -41 -72 q-112 -92 -215 -199q-29 -30 -65 -30q-18 0 -32 11q-19 14 -19 38z" />
<glyph unicode="&#xc2;" horiz-adv-x="1389" d="M96 48q0 101 9.5 267.5t38.5 358t88 368t157 298t246 146.5q26 4 51 4q121 0 220.5 -89t171 -258.5t113 -367t59.5 -379t18 -301.5q0 -38 -26 -71q-38 -48 -89 -48q-24 0 -46.5 17t-22.5 55q-2 219 -34 439q-147 8 -294 8q-224 0 -455 -22q-20 -196 -20 -378 q0 -38 -26 -71q-38 -48 -90 -48q-24 0 -46.5 17t-22.5 55zM324 661q240 25 475 25q108 0 215 -6q-46 210 -122 373q-88 188 -199 239q-25 12 -51 12q-40 0 -81 -30q-160 -112 -229 -561zM404 1603q0 31 38 73q201 228 250 228q63 0 251 -225q18 -22 18 -42q0 -34 -29 -58.5 t-54 -24.5q-26 0 -41 18q-77 93 -165 176q-76 -74 -154 -162q-27 -32 -63 -32q-18 0 -32 11q-19 14 -19 38z" />
<glyph unicode="&#xc3;" horiz-adv-x="1389" d="M96 48q0 101 9.5 267.5t38.5 358t88 368t157 298t246 146.5q26 4 51 4q121 0 220.5 -89t171 -258.5t113 -367t59.5 -379t18 -301.5q0 -38 -26 -71q-38 -48 -89 -48q-24 0 -46.5 17t-22.5 55q-2 219 -34 439q-147 8 -294 8q-224 0 -455 -22q-20 -196 -20 -378 q0 -38 -26 -71q-38 -48 -90 -48q-24 0 -46.5 17t-22.5 55zM324 661q240 25 475 25q108 0 215 -6q-46 210 -122 373q-88 188 -199 239q-25 12 -51 12q-40 0 -81 -30q-160 -112 -229 -561zM385 1624q1 65 22 131q40 127 150 127q93 0 173 -119q41 -61 74 -61q17 0 30 14 q24 26 24 84q0 26 18 48q26 32 60 32q42 0 42 -41q0 -83 -31 -147q-57 -114 -178 -114q-89 0 -161 115q-39 62 -61 62q-33 0 -38 -97q-1 -28 -18 -50q-26 -32 -60 -32q-16 0 -31 11.5t-15 36.5z" />
<glyph unicode="&#xc4;" horiz-adv-x="1389" d="M96 48q0 101 9.5 267.5t38.5 358t88 368t157 298t246 146.5q26 4 51 4q121 0 220.5 -89t171 -258.5t113 -367t59.5 -379t18 -301.5q0 -38 -26 -71q-38 -48 -89 -48q-24 0 -46.5 17t-22.5 55q-2 219 -34 439q-147 8 -294 8q-224 0 -455 -22q-20 -196 -20 -378 q0 -38 -26 -71q-38 -48 -90 -48q-24 0 -46.5 17t-22.5 55zM324 661q240 25 475 25q108 0 215 -6q-46 210 -122 373q-88 188 -199 239q-25 12 -51 12q-40 0 -81 -30q-160 -112 -229 -561zM460 1637v57q0 35 25 67q35 44 83 44q23 0 44 -15.5t21 -51.5l-1 -56q0 -37 -25 -67 q-35 -44 -82 -44q-23 0 -43.5 15t-21.5 51zM733 1637v57q0 35 25 67q35 44 83 44q23 0 44 -15.5t21 -51.5l-1 -56q0 -37 -25 -67q-35 -44 -82 -44q-23 0 -43.5 15t-21.5 51z" />
<glyph unicode="&#xc5;" horiz-adv-x="1389" d="M96 48q0 101 9.5 267.5t38.5 358t88 368t157 298t246 146.5q26 4 51 4q121 0 220.5 -89t171 -258.5t113 -367t59.5 -379t18 -301.5q0 -38 -26 -71q-38 -48 -89 -48q-24 0 -46.5 17t-22.5 55q-2 219 -34 439q-147 8 -294 8q-224 0 -455 -22q-20 -196 -20 -378 q0 -38 -26 -71q-38 -48 -90 -48q-24 0 -46.5 17t-22.5 55zM324 661q240 25 475 25q108 0 215 -6q-46 210 -122 373q-88 188 -199 239q-25 12 -51 12q-40 0 -81 -30q-160 -112 -229 -561zM481 1692q0 99 63.5 155.5t148.5 56.5q88 0 146 -54q45 -42 45 -116 q0 -99 -63.5 -155.5t-148.5 -56.5q-88 0 -146 54q-45 42 -45 116zM590 1722q0 -30 31 -59.5t85 -29.5q30 0 49.5 20t19.5 51q0 30 -31 59.5t-85 29.5q-30 0 -49.5 -20t-19.5 -51z" />
<glyph unicode="&#xc6;" horiz-adv-x="1988" d="M96 48q0 101 9.5 267.5t38.5 358t88 368t157 298t246 146.5q26 4 51 4q115 0 234 -83q27 40 79 47q262 36 512 36q198 0 374 -31q35 -6 48 -37q6 -14 6 -31q0 -19 -9 -41q-16 -39 -51 -61q-25 -15 -52 -15q-10 0 -27 2q-153 23 -338 23q-203 0 -393 -21 q-27 -274 -27 -583h300q467 0 497 -59q9 -17 9 -37q0 -15 -6 -33q-14 -40 -46 -63q-28 -19 -61 -19q-21 0 -35 2q-179 18 -403 18h-250q8 -173 25 -334q225 26 440 26q197 0 373 -30q35 -6 48 -38q6 -14 6 -31q0 -19 -9 -40q-16 -40 -51 -61q-25 -15 -52 -15q-10 0 -26 2 q-154 23 -339 23q-230 0 -443 -26q-36 -4 -58 -4q-57 0 -70 111l-14 121q-13 115 -18 287q-267 -10 -558 -22q-20 -196 -20 -378q0 -38 -26 -71q-38 -48 -90 -48q-24 0 -46.5 17t-22.5 55zM324 661q300 15 533 25q0 279 21 521q-124 97 -236 97q-40 0 -81 -30 q-160 -112 -229 -561z" />
<glyph unicode="&#xc7;" horiz-adv-x="1355" d="M62 697q0 105 26 217q55 232 188 369q203 207 486 207q266 0 482 -222q18 -19 18 -46q0 -8 -4.5 -32t-36.5 -54q-36 -34 -74 -34q-33 0 -55 23q-110 113 -220 149q-78 26 -159 26q-136 0 -235 -62q-24 -16 -49 -36q-98 -79 -147 -235q-36 -111 -36 -218q0 -159 57 -283 q40 -85 123 -167q136 -133 347 -133q93 0 183 37t177 153q41 55 95 55q19 0 35 -9q35 -20 35 -63q0 -30 -22 -62q-98 -136 -210 -207q-124 -79 -286 -92l-37 -48q174 -60 174 -188q0 -48 -49.5 -95t-139.5 -47q-97 0 -183 56q-16 10 -16 30q0 25 19 45q22 27 48 27 q16 0 29 -10q31 -23 83 -39q22 -7 43 -7q28 0 42 8.5t14 20.5q0 44 -150 99q-51 19 -51 47q0 38 45 102q-166 16 -304 113q-166 115 -242 338q-43 127 -43 267z" />
<glyph unicode="&#xc8;" horiz-adv-x="1275" d="M144 686q0 241 18 487q5 77 16.5 148.5t40 99.5t67.5 33q262 36 512 36q198 0 374 -31q35 -6 48 -37q6 -14 6 -31q0 -19 -9 -41q-16 -39 -51 -61q-25 -15 -52 -15q-10 0 -27 2q-153 23 -338 23q-203 0 -393 -21q-27 -274 -27 -600q105 17 300 17q467 0 497 -59 q9 -17 9 -37q0 -15 -6 -33q-14 -40 -46 -63q-28 -19 -61 -19q-21 0 -35 2q-179 18 -403 18q-123 0 -250 -11q8 -162 25 -323q225 26 440 26q197 0 373 -30q35 -6 48 -38q6 -14 6 -31q0 -19 -9 -40q-16 -40 -51 -61q-25 -15 -52 -15q-10 0 -26 2q-154 23 -339 23 q-230 0 -443 -26q-36 -4 -58 -4q-57 0 -70 111l-14 121q-20 173 -20 478zM436 1821q0 28 22 52q29 31 63 31q19 0 33 -11q132 -101 243 -223q12 -12 12 -32q0 -28 -28 -56t-55 -28t-42 17q-105 114 -230 211q-18 14 -18 39z" />
<glyph unicode="&#xc9;" horiz-adv-x="1275" d="M144 686q0 241 18 487q5 77 16.5 148.5t40 99.5t67.5 33q262 36 512 36q198 0 374 -31q35 -6 48 -37q6 -14 6 -31q0 -19 -9 -41q-16 -39 -51 -61q-25 -15 -52 -15q-10 0 -27 2q-153 23 -338 23q-203 0 -393 -21q-27 -274 -27 -600q105 17 300 17q467 0 497 -59 q9 -17 9 -37q0 -15 -6 -33q-14 -40 -46 -63q-28 -19 -61 -19q-21 0 -35 2q-179 18 -403 18q-123 0 -250 -11q8 -162 25 -323q225 26 440 26q197 0 373 -30q35 -6 48 -38q6 -14 6 -31q0 -19 -9 -40q-16 -40 -51 -61q-25 -15 -52 -15q-10 0 -26 2q-154 23 -339 23 q-230 0 -443 -26q-36 -4 -58 -4q-57 0 -70 111l-14 121q-20 173 -20 478zM561 1603q0 57 268 280q26 21 54 21q24 0 39 -18q11 -14 11 -31q0 -39 -41 -72q-112 -92 -215 -199q-29 -30 -65 -30q-18 0 -32 11q-19 14 -19 38z" />
<glyph unicode="&#xca;" horiz-adv-x="1275" d="M144 686q0 241 18 487q5 77 16.5 148.5t40 99.5t67.5 33q262 36 512 36q198 0 374 -31q35 -6 48 -37q6 -14 6 -31q0 -19 -9 -41q-16 -39 -51 -61q-25 -15 -52 -15q-10 0 -27 2q-153 23 -338 23q-203 0 -393 -21q-27 -274 -27 -600q105 17 300 17q467 0 497 -59 q9 -17 9 -37q0 -15 -6 -33q-14 -40 -46 -63q-28 -19 -61 -19q-21 0 -35 2q-179 18 -403 18q-123 0 -250 -11q8 -162 25 -323q225 26 440 26q197 0 373 -30q35 -6 48 -38q6 -14 6 -31q0 -19 -9 -40q-16 -40 -51 -61q-25 -15 -52 -15q-10 0 -26 2q-154 23 -339 23 q-230 0 -443 -26q-36 -4 -58 -4q-57 0 -70 111l-14 121q-20 173 -20 478zM407 1603q0 31 38 73q201 228 250 228q63 0 251 -225q18 -22 18 -42q0 -34 -29 -58.5t-54 -24.5q-26 0 -41 18q-77 93 -165 176q-76 -74 -154 -162q-27 -32 -63 -32q-18 0 -32 11q-19 14 -19 38z" />
<glyph unicode="&#xcb;" horiz-adv-x="1275" d="M144 686q0 241 18 487q5 77 16.5 148.5t40 99.5t67.5 33q262 36 512 36q198 0 374 -31q35 -6 48 -37q6 -14 6 -31q0 -19 -9 -41q-16 -39 -51 -61q-25 -15 -52 -15q-10 0 -27 2q-153 23 -338 23q-203 0 -393 -21q-27 -274 -27 -600q105 17 300 17q467 0 497 -59 q9 -17 9 -37q0 -15 -6 -33q-14 -40 -46 -63q-28 -19 -61 -19q-21 0 -35 2q-179 18 -403 18q-123 0 -250 -11q8 -162 25 -323q225 26 440 26q197 0 373 -30q35 -6 48 -38q6 -14 6 -31q0 -19 -9 -40q-16 -40 -51 -61q-25 -15 -52 -15q-10 0 -26 2q-154 23 -339 23 q-230 0 -443 -26q-36 -4 -58 -4q-57 0 -70 111l-14 121q-20 173 -20 478zM463 1637v57q0 35 25 67q35 44 83 44q23 0 44 -15.5t21 -51.5l-1 -56q0 -37 -25 -67q-35 -44 -82 -44q-23 0 -43.5 15t-21.5 51zM736 1637v57q0 35 25 67q35 44 83 44q23 0 44 -15.5t21 -51.5l-1 -56 q0 -37 -25 -67q-35 -44 -82 -44q-23 0 -43.5 15t-21.5 51z" />
<glyph unicode="&#xcc;" horiz-adv-x="550" d="M19 1821q0 28 22 52q29 31 63 31q19 0 33 -11q132 -101 243 -223q12 -12 12 -32q0 -28 -28 -56t-55 -28t-42 17q-105 114 -230 211q-18 14 -18 39zM156 992q0 203 6 382q1 39 28 71q38 45 89 45q24 0 44.5 -16t20.5 -54q-3 -202 -3 -406q0 -129 4 -364q4 -220 25 -435 q9 -92 9 -119q0 -33 -21 -65.5t-59 -47.5q-18 -7 -34 -7q-63 0 -69 62q-40 391 -40 954z" />
<glyph unicode="&#xcd;" horiz-adv-x="550" d="M144 1603q0 57 268 280q26 21 54 21q24 0 39 -18q11 -14 11 -31q0 -39 -41 -72q-112 -92 -215 -199q-29 -30 -65 -30q-18 0 -32 11q-19 14 -19 38zM156 992q0 203 6 382q1 39 28 71q38 45 89 45q24 0 44.5 -16t20.5 -54q-3 -202 -3 -406q0 -129 4 -364q4 -220 25 -435 q9 -92 9 -119q0 -33 -21 -65.5t-59 -47.5q-18 -7 -34 -7q-63 0 -69 62q-40 391 -40 954z" />
<glyph unicode="&#xce;" horiz-adv-x="550" d="M-11 1603q0 31 38 73q201 228 250 228q63 0 251 -225q18 -22 18 -42q0 -34 -29 -58.5t-54 -24.5q-26 0 -41 18q-77 93 -165 176q-76 -74 -154 -162q-27 -32 -63 -32q-18 0 -32 11q-19 14 -19 38zM156 992q0 203 6 382q1 39 28 71q38 45 89 45q24 0 44.5 -16t20.5 -54 q-3 -202 -3 -406q0 -129 4 -364q4 -220 25 -435q9 -92 9 -119q0 -33 -21 -65.5t-59 -47.5q-18 -7 -34 -7q-63 0 -69 62q-40 391 -40 954z" />
<glyph unicode="&#xcf;" horiz-adv-x="550" d="M45 1637v57q0 35 25 67q35 44 83 44q23 0 44 -15.5t21 -51.5l-1 -56q0 -37 -25 -67q-35 -44 -82 -44q-23 0 -43.5 15t-21.5 51zM156 992q0 203 6 382q1 39 28 71q38 45 89 45q24 0 44.5 -16t20.5 -54q-3 -202 -3 -406q0 -129 4 -364q4 -220 25 -435q9 -92 9 -119 q0 -33 -21 -65.5t-59 -47.5q-18 -7 -34 -7q-63 0 -69 62q-40 391 -40 954zM318 1637v57q0 35 25 67q35 44 83 44q23 0 44 -15.5t21 -51.5l-1 -56q0 -37 -25 -67q-35 -44 -82 -44q-23 0 -43.5 15t-21.5 51z" />
<glyph unicode="&#xd0;" horiz-adv-x="1461" d="M8 703q0 44 41 76q29 24 64 25l34 1q9 561 69 626q54 59 313 59q73 0 198.5 -14t283.5 -109q150 -90 246 -252q103 -172 103 -378q0 -188 -119 -379q-218 -349 -651 -378q-54 -4 -107 -4q-268 0 -293 57q-6 14 -8 33q-33 287 -36 578l-72 -1q-35 0 -53 21q-13 16 -13 39z M331 812q309 11 356 11q35 0 54 -22q12 -15 12 -36q0 -46 -40 -79q-29 -23 -65 -24q-187 -8 -316 -12q5 -242 32 -479q80 -10 170 -10q435 0 586 315q56 118 56 231q0 209 -162 388q-84 92 -191 141q-127 58 -264 66q-36 2 -73 2q-62 0 -127 -6q-25 -246 -28 -486z" />
<glyph unicode="&#xd1;" horiz-adv-x="1431" d="M146 700q0 333 38 679q13 111 116 111q33 0 53 -22l700 -780q-4 344 -28 605q-10 107 -10 135q0 62 68 62q45 0 81 -37q29 -31 33 -71q34 -325 38 -570t4 -384q0 -195 -4 -381q-2 -69 -69 -69q-53 0 -90 48q-25 32 -25 70q2 144 3 292l-707 787q-16 -216 -16 -428 q0 -211 16 -420q5 -73 13.5 -138t8.5 -94q0 -33 -21.5 -65t-60.5 -47q-18 -7 -34 -7q-107 0 -107 724zM396 1624q1 65 22 131q40 127 150 127q93 0 173 -119q41 -61 74 -61q17 0 30 14q24 26 24 84q0 26 18 48q26 32 60 32q42 0 42 -41q0 -83 -31 -147q-57 -114 -178 -114 q-89 0 -161 115q-39 62 -61 62q-33 0 -38 -97q-1 -28 -18 -50q-26 -32 -60 -32q-16 0 -31 11.5t-15 36.5z" />
<glyph unicode="&#xd2;" horiz-adv-x="1545" d="M68 706q0 169 70 343q78 192 222 304q178 137 416 137q89 0 148 -17.5t97 -32.5q122 -49 210 -143q192 -207 192 -540q0 -212 -93.5 -402t-282.5 -299q-140 -80 -313 -80q-301 0 -483 214q-83 97 -128 218q-55 143 -55 298zM254 750q0 -136 41 -244q31 -81 101 -166 q58 -70 135 -113q112 -62 249 -62q153 0 292 111q103 82 144 249q23 94 23 189q0 142 -52.5 273.5t-171.5 221.5t-291 90q-54 0 -101 -9q-248 -51 -334 -322q-35 -111 -35 -218zM497 1821q0 28 22 52q29 31 63 31q19 0 33 -11q132 -101 243 -223q12 -12 12 -32 q0 -28 -28 -56t-55 -28t-42 17q-105 114 -230 211q-18 14 -18 39z" />
<glyph unicode="&#xd3;" horiz-adv-x="1545" d="M68 706q0 169 70 343q78 192 222 304q178 137 416 137q89 0 148 -17.5t97 -32.5q122 -49 210 -143q192 -207 192 -540q0 -212 -93.5 -402t-282.5 -299q-140 -80 -313 -80q-301 0 -483 214q-83 97 -128 218q-55 143 -55 298zM254 750q0 -136 41 -244q31 -81 101 -166 q58 -70 135 -113q112 -62 249 -62q153 0 292 111q103 82 144 249q23 94 23 189q0 142 -52.5 273.5t-171.5 221.5t-291 90q-54 0 -101 -9q-248 -51 -334 -322q-35 -111 -35 -218zM622 1603q0 57 268 280q26 21 54 21q24 0 39 -18q11 -14 11 -31q0 -39 -41 -72 q-112 -92 -215 -199q-29 -30 -65 -30q-18 0 -32 11q-19 14 -19 38z" />
<glyph unicode="&#xd4;" horiz-adv-x="1545" d="M68 706q0 169 70 343q78 192 222 304q178 137 416 137q89 0 148 -17.5t97 -32.5q122 -49 210 -143q192 -207 192 -540q0 -212 -93.5 -402t-282.5 -299q-140 -80 -313 -80q-301 0 -483 214q-83 97 -128 218q-55 143 -55 298zM254 750q0 -136 41 -244q31 -81 101 -166 q58 -70 135 -113q112 -62 249 -62q153 0 292 111q103 82 144 249q23 94 23 189q0 142 -52.5 273.5t-171.5 221.5t-291 90q-54 0 -101 -9q-248 -51 -334 -322q-35 -111 -35 -218zM467 1603q0 31 38 73q201 228 250 228q63 0 251 -225q18 -22 18 -42q0 -34 -29 -58.5 t-54 -24.5q-26 0 -41 18q-77 93 -165 176q-76 -74 -154 -162q-27 -32 -63 -32q-18 0 -32 11q-19 14 -19 38z" />
<glyph unicode="&#xd5;" horiz-adv-x="1545" d="M68 706q0 169 70 343q78 192 222 304q178 137 416 137q89 0 148 -17.5t97 -32.5q122 -49 210 -143q192 -207 192 -540q0 -212 -93.5 -402t-282.5 -299q-140 -80 -313 -80q-301 0 -483 214q-83 97 -128 218q-55 143 -55 298zM254 750q0 -136 41 -244q31 -81 101 -166 q58 -70 135 -113q112 -62 249 -62q153 0 292 111q103 82 144 249q23 94 23 189q0 142 -52.5 273.5t-171.5 221.5t-291 90q-54 0 -101 -9q-248 -51 -334 -322q-35 -111 -35 -218zM449 1624q1 65 22 131q40 127 150 127q93 0 173 -119q41 -61 74 -61q17 0 30 14q24 26 24 84 q0 26 18 48q26 32 60 32q42 0 42 -41q0 -83 -31 -147q-57 -114 -178 -114q-89 0 -161 115q-39 62 -61 62q-33 0 -38 -97q-1 -28 -18 -50q-26 -32 -60 -32q-16 0 -31 11.5t-15 36.5z" />
<glyph unicode="&#xd6;" horiz-adv-x="1545" d="M68 706q0 169 70 343q78 192 222 304q178 137 416 137q89 0 148 -17.5t97 -32.5q122 -49 210 -143q192 -207 192 -540q0 -212 -93.5 -402t-282.5 -299q-140 -80 -313 -80q-301 0 -483 214q-83 97 -128 218q-55 143 -55 298zM254 750q0 -136 41 -244q31 -81 101 -166 q58 -70 135 -113q112 -62 249 -62q153 0 292 111q103 82 144 249q23 94 23 189q0 142 -52.5 273.5t-171.5 221.5t-291 90q-54 0 -101 -9q-248 -51 -334 -322q-35 -111 -35 -218zM523 1637v57q0 35 25 67q35 44 83 44q23 0 44 -15.5t21 -51.5l-1 -56q0 -37 -25 -67 q-35 -44 -82 -44q-23 0 -43.5 15t-21.5 51zM796 1637v57q0 35 25 67q35 44 83 44q23 0 44 -15.5t21 -51.5l-1 -56q0 -37 -25 -67q-35 -44 -82 -44q-23 0 -43.5 15t-21.5 51z" />
<glyph unicode="&#xd7;" horiz-adv-x="1275" d="M100 1180q0 46 32 78q35 35 75 35q28 0 47 -19l399 -399l385 383q34 35 73 35q27 0 45 -20t18 -45q0 -51 -32 -83l-379 -379l393 -393q19 -19 19 -48q0 -46 -33 -77q-35 -35 -76 -35q-26 0 -45 18l-397 397l-384 -384q-32 -31 -74 -31q-29 0 -47 19.5t-18 47.5 q0 48 33 80l380 378l-394 395q-20 19 -20 47z" />
<glyph unicode="&#xd8;" horiz-adv-x="1545" d="M68 706q0 169 70 343q78 192 222 304q178 137 416 137q89 0 148 -17q118 -36 189 -79l15 22q25 38 62.5 61t69.5 23q46 0 46 -40q0 -27 -19 -56l-65 -98q201 -205 201 -549q0 -212 -93.5 -402t-282.5 -299q-140 -80 -313 -80q-208 0 -360 103l-13 -19q-27 -38 -66 -60 q-34 -19 -63 -19q-24 0 -36 14q-10 10 -10 27q0 27 23 60l61 86q-97 105 -147 240q-55 143 -55 298zM254 750q0 -136 41 -244q31 -80 99 -163q309 438 604 878q-114 78 -274 78q-54 0 -101 -9q-248 -51 -334 -322q-35 -111 -35 -218zM496 249q123 -84 284 -84q153 0 292 111 q103 82 144 249q23 94 23 189q0 142 -52 274q-31 76 -85 139q-296 -440 -606 -878z" />
<glyph unicode="&#xd9;" horiz-adv-x="1471" d="M103 822q0 290 110 587q15 41 49 63q27 18 56 18q47 0 64 -39q7 -15 7 -32q0 -18 -8 -39q-93 -254 -93 -532q0 -195 51 -361q44 -132 147 -228q53 -49 137 -74q59 -18 120 -18q124 0 219 76q184 153 184 553q0 157 -22.5 300t-53.5 229q-5 15 -5 30q0 63 60 102 q29 17 55 17q8 0 28.5 -4t33.5 -38q41 -109 66 -274q22 -141 22 -298q0 -226 -56 -414q-112 -375 -454 -452q-78 -18 -147 -18q-253 0 -401 211q-169 240 -169 635zM468 1821q0 28 22 52q29 31 63 31q19 0 33 -11q132 -101 243 -223q12 -12 12 -32q0 -28 -28 -56t-55 -28 t-42 17q-105 114 -230 211q-18 14 -18 39z" />
<glyph unicode="&#xda;" horiz-adv-x="1471" d="M103 822q0 290 110 587q15 41 49 63q27 18 56 18q47 0 64 -39q7 -15 7 -32q0 -18 -8 -39q-93 -254 -93 -532q0 -195 51 -361q44 -132 147 -228q53 -49 137 -74q59 -18 120 -18q124 0 219 76q184 153 184 553q0 157 -22.5 300t-53.5 229q-5 15 -5 30q0 63 60 102 q29 17 55 17q8 0 28.5 -4t33.5 -38q41 -109 66 -274q22 -141 22 -298q0 -226 -56 -414q-112 -375 -454 -452q-78 -18 -147 -18q-253 0 -401 211q-169 240 -169 635zM593 1603q0 57 268 280q26 21 54 21q24 0 39 -18q11 -14 11 -31q0 -39 -41 -72q-112 -92 -215 -199 q-29 -30 -65 -30q-18 0 -32 11q-19 14 -19 38z" />
<glyph unicode="&#xdb;" horiz-adv-x="1471" d="M103 822q0 290 110 587q15 41 49 63q27 18 56 18q47 0 64 -39q7 -15 7 -32q0 -18 -8 -39q-93 -254 -93 -532q0 -195 51 -361q44 -132 147 -228q53 -49 137 -74q59 -18 120 -18q124 0 219 76q184 153 184 553q0 157 -22.5 300t-53.5 229q-5 15 -5 30q0 63 60 102 q29 17 55 17q8 0 28.5 -4t33.5 -38q41 -109 66 -274q22 -141 22 -298q0 -226 -56 -414q-112 -375 -454 -452q-78 -18 -147 -18q-253 0 -401 211q-169 240 -169 635zM438 1603q0 31 38 73q201 228 250 228q63 0 251 -225q18 -22 18 -42q0 -34 -29 -58.5t-54 -24.5 q-26 0 -41 18q-77 93 -165 176q-76 -74 -154 -162q-27 -32 -63 -32q-18 0 -32 11q-19 14 -19 38z" />
<glyph unicode="&#xdc;" horiz-adv-x="1471" d="M103 822q0 290 110 587q15 41 49 63q27 18 56 18q47 0 64 -39q7 -15 7 -32q0 -18 -8 -39q-93 -254 -93 -532q0 -195 51 -361q44 -132 147 -228q53 -49 137 -74q59 -18 120 -18q124 0 219 76q184 153 184 553q0 157 -22.5 300t-53.5 229q-5 15 -5 30q0 63 60 102 q29 17 55 17q8 0 28.5 -4t33.5 -38q41 -109 66 -274q22 -141 22 -298q0 -226 -56 -414q-112 -375 -454 -452q-78 -18 -147 -18q-253 0 -401 211q-169 240 -169 635zM494 1637v57q0 35 25 67q35 44 83 44q23 0 44 -15.5t21 -51.5l-1 -56q0 -37 -25 -67q-35 -44 -82 -44 q-23 0 -43.5 15t-21.5 51zM767 1637v57q0 35 25 67q35 44 83 44q23 0 44 -15.5t21 -51.5l-1 -56q0 -37 -25 -67q-35 -44 -82 -44q-23 0 -43.5 15t-21.5 51z" />
<glyph unicode="&#xdd;" horiz-adv-x="1147" d="M32 1371q0 24 15 54.5t53 51.5q24 13 46 13q51 0 67 -47q66 -202 160 -371t214 -327q252 317 446 678q21 38 57 56q22 11 44 11q13 0 26 -5q44 -16 44 -67q0 -24 -14 -51q-227 -421 -529 -790q0 -110 -1 -220q-2 -132 -2 -262q0 -38 -27 -71q-38 -48 -89 -48 q-24 0 -46.5 16.5t-22.5 54.5q0 129 2 325l1 92l-2 85q-143 182 -253 374t-185 424q-4 12 -4 24zM494 1603q0 57 268 280q26 21 54 21q24 0 39 -18q11 -14 11 -31q0 -39 -41 -72q-112 -92 -215 -199q-29 -30 -65 -30q-18 0 -32 11q-19 14 -19 38z" />
<glyph unicode="&#xde;" horiz-adv-x="1310" d="M156 782q0 413 6 592q1 39 28 71q38 45 89 45q24 0 44.5 -16t20.5 -54l-2 -137q88 7 209 7q364 0 565 -154q99 -76 133 -191q10 -35 10 -72q0 -91 -59 -198q-169 -303 -635 -414q-112 -26 -211 -42q6 -104 16 -207q9 -90 9 -117q0 -33 -21 -65t-59 -47q-18 -7 -34 -7 q-63 0 -69 61q-40 387 -40 945zM341 803q0 -213 5 -403q78 12 173 32q401 86 525 299q30 52 30 98q0 87 -96 153q-178 121 -476 121q-74 0 -159 -6q-2 -146 -2 -294z" />
<glyph unicode="&#xdf;" horiz-adv-x="1286" d="M133 817q0 436 227 593q117 80 250 80q184 0 293 -123q78 -86 78 -197q0 -167 -137 -276.5t-137 -165.5q0 -60 236 -111q80 -18 126 -38q100 -42 142 -136q20 -44 20 -98q0 -58 -27 -124q-98 -241 -414 -241q-293 0 -293 97q0 20 11 42q18 37 50 55q23 13 46 13 q10 0 37 -7q83 -20 188 -20q225 0 225 135q0 82 -68 113t-160 48q-73 14 -140 36q-154 52 -154 203q0 106 137 216t137 213q0 75 -59 131.5t-174 56.5q-268 0 -268 -414q0 -134 32 -627q15 -238 15 -256q0 -35 -22 -66q-35 -47 -86 -47q-59 0 -63 62q-48 761 -48 853z" />
<glyph unicode="&#xe0;" horiz-adv-x="1349" d="M80 513q0 216 154 411q192 242 493 242q154 0 279 -67q5 12 14 23q36 44 83 44q23 0 44 -15t21 -52l-1 -196q0 -175 7 -394q7 -227 41 -391q4 -17 4 -27q0 -24 -15 -52.5t-51 -47.5q-20 -11 -42 -11q-52 0 -62 48q-15 73 -26 154q-104 -113 -232 -163q-101 -39 -201 -39 q-115 0 -228 53q-147 68 -222 217q-60 121 -60 263zM253 557q0 -89 39.5 -185.5t134.5 -155t198 -58.5q229 0 379 251q-9 175 -9 456q-132 123 -314 123q-185 0 -303 -126q-125 -130 -125 -305zM401 1497q0 28 22 52q29 31 63 31q19 0 33 -11q132 -101 243 -223 q12 -12 12 -32q0 -28 -28 -56t-55 -28t-42 17q-105 114 -230 211q-18 14 -18 39z" />
<glyph unicode="&#xe1;" horiz-adv-x="1349" d="M80 513q0 216 154 411q192 242 493 242q154 0 279 -67q5 12 14 23q36 44 83 44q23 0 44 -15t21 -52l-1 -196q0 -175 7 -394q7 -227 41 -391q4 -17 4 -27q0 -24 -15 -52.5t-51 -47.5q-20 -11 -42 -11q-52 0 -62 48q-15 73 -26 154q-104 -113 -232 -163q-101 -39 -201 -39 q-115 0 -228 53q-147 68 -222 217q-60 121 -60 263zM253 557q0 -89 39.5 -185.5t134.5 -155t198 -58.5q229 0 379 251q-9 175 -9 456q-132 123 -314 123q-185 0 -303 -126q-125 -130 -125 -305zM526 1279q0 57 268 280q26 21 54 21q24 0 39 -18q11 -14 11 -31q0 -39 -41 -72 q-112 -92 -215 -199q-29 -30 -65 -30q-18 0 -32 11q-19 14 -19 38z" />
<glyph unicode="&#xe2;" horiz-adv-x="1349" d="M80 513q0 216 154 411q192 242 493 242q154 0 279 -67q5 12 14 23q36 44 83 44q23 0 44 -15t21 -52l-1 -196q0 -175 7 -394q7 -227 41 -391q4 -17 4 -27q0 -24 -15 -52.5t-51 -47.5q-20 -11 -42 -11q-52 0 -62 48q-15 73 -26 154q-104 -113 -232 -163q-101 -39 -201 -39 q-115 0 -228 53q-147 68 -222 217q-60 121 -60 263zM253 557q0 -89 39.5 -185.5t134.5 -155t198 -58.5q229 0 379 251q-9 175 -9 456q-132 123 -314 123q-185 0 -303 -126q-125 -130 -125 -305zM371 1279q0 31 38 73q201 228 250 228q63 0 251 -225q18 -22 18 -42 q0 -34 -29 -58.5t-54 -24.5q-26 0 -41 18q-77 93 -165 176q-76 -74 -154 -162q-27 -32 -63 -32q-18 0 -32 11q-19 14 -19 38z" />
<glyph unicode="&#xe3;" horiz-adv-x="1349" d="M80 513q0 216 154 411q192 242 493 242q154 0 279 -67q5 12 14 23q36 44 83 44q23 0 44 -15t21 -52l-1 -196q0 -175 7 -394q7 -227 41 -391q4 -17 4 -27q0 -24 -15 -52.5t-51 -47.5q-20 -11 -42 -11q-52 0 -62 48q-15 73 -26 154q-104 -113 -232 -163q-101 -39 -201 -39 q-115 0 -228 53q-147 68 -222 217q-60 121 -60 263zM253 557q0 -89 39.5 -185.5t134.5 -155t198 -58.5q229 0 379 251q-9 175 -9 456q-132 123 -314 123q-185 0 -303 -126q-125 -130 -125 -305zM353 1300q1 65 22 131q40 127 150 127q93 0 173 -119q41 -61 74 -61 q17 0 30 14q24 26 24 84q0 26 18 48q26 32 60 32q42 0 42 -41q0 -83 -31 -147q-57 -114 -178 -114q-89 0 -161 115q-39 62 -61 62q-33 0 -38 -97q-1 -28 -18 -50q-26 -32 -60 -32q-16 0 -31 11.5t-15 36.5z" />
<glyph unicode="&#xe4;" horiz-adv-x="1349" d="M80 513q0 216 154 411q192 242 493 242q154 0 279 -67q5 12 14 23q36 44 83 44q23 0 44 -15t21 -52l-1 -196q0 -175 7 -394q7 -227 41 -391q4 -17 4 -27q0 -24 -15 -52.5t-51 -47.5q-20 -11 -42 -11q-52 0 -62 48q-15 73 -26 154q-104 -113 -232 -163q-101 -39 -201 -39 q-115 0 -228 53q-147 68 -222 217q-60 121 -60 263zM253 557q0 -89 39.5 -185.5t134.5 -155t198 -58.5q229 0 379 251q-9 175 -9 456q-132 123 -314 123q-185 0 -303 -126q-125 -130 -125 -305zM427 1313v57q0 35 25 67q35 44 83 44q23 0 44 -15.5t21 -51.5l-1 -56 q0 -37 -25 -67q-35 -44 -82 -44q-23 0 -43.5 15t-21.5 51zM700 1313v57q0 35 25 67q35 44 83 44q23 0 44 -15.5t21 -51.5l-1 -56q0 -37 -25 -67q-35 -44 -82 -44q-23 0 -43.5 15t-21.5 51z" />
<glyph unicode="&#xe5;" horiz-adv-x="1349" d="M80 513q0 216 154 411q192 242 493 242q154 0 279 -67q5 12 14 23q36 44 83 44q23 0 44 -15t21 -52l-1 -196q0 -175 7 -394q7 -227 41 -391q4 -17 4 -27q0 -24 -15 -52.5t-51 -47.5q-20 -11 -42 -11q-52 0 -62 48q-15 73 -26 154q-104 -113 -232 -163q-101 -39 -201 -39 q-115 0 -228 53q-147 68 -222 217q-60 121 -60 263zM253 557q0 -89 39.5 -185.5t134.5 -155t198 -58.5q229 0 379 251q-9 175 -9 456q-132 123 -314 123q-185 0 -303 -126q-125 -130 -125 -305zM499 1368q0 99 63.5 155.5t148.5 56.5q88 0 146 -54q45 -42 45 -116 q0 -99 -63.5 -155.5t-148.5 -56.5q-88 0 -146 54q-45 42 -45 116zM608 1398q0 -30 31 -59.5t85 -29.5q30 0 49.5 20t19.5 51q0 30 -31 59.5t-85 29.5q-30 0 -49.5 -20t-19.5 -51z" />
<glyph unicode="&#xe6;" horiz-adv-x="2177" d="M80 513q0 216 154 411q192 242 493 242q253 0 411 -210q58 72 132 118q145 92 330 92q254 0 395 -203q88 -129 88 -262q0 -130 -102 -138l-806 -70q23 -100 92 -184q125 -153 332 -153q202 0 312 141q36 46 85 46q20 0 37 -11q28 -20 28 -55q0 -33 -25 -64 q-105 -129 -221 -182q-112 -51 -247 -51q-200 0 -340 99q-136 89 -191 259q-148 -358 -447 -358q-115 0 -228 53q-147 68 -222 217q-60 121 -60 263zM253 557q0 -89 39.5 -185.5t134.5 -155t198 -58.5q215 0 368 430v202q-118 198 -312 198q-185 0 -303 -126 q-125 -130 -125 -305zM1170 667l725 64q-26 94 -93 161q-99 97 -253 97q-170 0 -259 -88q-99 -99 -120 -234z" />
<glyph unicode="&#xe7;" horiz-adv-x="1204" d="M80 538q0 288 192 471q173 157 415 157q222 0 383 -141q55 -49 55 -83q0 -44 -35.5 -78t-72.5 -34q-27 0 -49 21q-142 138 -332 138q-170 0 -259 -88q-125 -125 -125 -308q0 -160 102 -284q125 -153 332 -153q202 0 312 141q36 46 85 46q20 0 37 -11q28 -20 28 -55 q0 -33 -25 -64q-105 -129 -221 -182q-105 -48 -230 -51l-38 -50q174 -60 174 -188q0 -48 -49.5 -95t-139.5 -47q-97 0 -183 56q-16 10 -16 30q0 25 19 45q22 27 48 27q16 0 29 -10q31 -23 83 -39q22 -7 43 -7q28 0 42 8.5t14 20.5q0 44 -150 99q-51 19 -51 47q0 41 51 111 q-132 20 -233 91q-141 99 -201 265q-34 91 -34 194z" />
<glyph unicode="&#xe8;" horiz-adv-x="1264" d="M80 538q0 288 192 471q173 157 415 157q254 0 395 -203q88 -129 88 -262q0 -130 -102 -138l-805 -70q22 -100 91 -184q125 -153 332 -153q202 0 312 141q36 46 85 46q20 0 37 -11q28 -20 28 -55q0 -33 -25 -64q-105 -129 -221 -182q-112 -51 -247 -51q-200 0 -340.5 99 t-200.5 265q-34 91 -34 194zM258 667l724 64q-26 94 -93 161q-99 96 -253 97q-170 0 -259 -88q-99 -99 -119 -234zM376 1497q0 28 22 52q29 31 63 31q19 0 33 -11q132 -101 243 -223q12 -12 12 -32q0 -28 -28 -56t-55 -28t-42 17q-105 114 -230 211q-18 14 -18 39z" />
<glyph unicode="&#xe9;" horiz-adv-x="1264" d="M80 538q0 288 192 471q173 157 415 157q254 0 395 -203q88 -129 88 -262q0 -130 -102 -138l-805 -70q22 -100 91 -184q125 -153 332 -153q202 0 312 141q36 46 85 46q20 0 37 -11q28 -20 28 -55q0 -33 -25 -64q-105 -129 -221 -182q-112 -51 -247 -51q-200 0 -340.5 99 t-200.5 265q-34 91 -34 194zM258 667l724 64q-26 94 -93 161q-99 96 -253 97q-170 0 -259 -88q-99 -99 -119 -234zM501 1279q0 57 268 280q26 21 54 21q24 0 39 -18q11 -14 11 -31q0 -39 -41 -72q-112 -92 -215 -199q-29 -30 -65 -30q-18 0 -32 11q-19 14 -19 38z" />
<glyph unicode="&#xea;" horiz-adv-x="1264" d="M80 538q0 288 192 471q173 157 415 157q254 0 395 -203q88 -129 88 -262q0 -130 -102 -138l-805 -70q22 -100 91 -184q125 -153 332 -153q202 0 312 141q36 46 85 46q20 0 37 -11q28 -20 28 -55q0 -33 -25 -64q-105 -129 -221 -182q-112 -51 -247 -51q-200 0 -340.5 99 t-200.5 265q-34 91 -34 194zM258 667l724 64q-26 94 -93 161q-99 96 -253 97q-170 0 -259 -88q-99 -99 -119 -234zM347 1279q0 31 38 73q201 228 250 228q63 0 251 -225q18 -22 18 -42q0 -34 -29 -58.5t-54 -24.5q-26 0 -41 18q-77 93 -165 176q-76 -74 -154 -162 q-27 -32 -63 -32q-18 0 -32 11q-19 14 -19 38z" />
<glyph unicode="&#xeb;" horiz-adv-x="1264" d="M80 538q0 288 192 471q173 157 415 157q254 0 395 -203q88 -129 88 -262q0 -130 -102 -138l-805 -70q22 -100 91 -184q125 -153 332 -153q202 0 312 141q36 46 85 46q20 0 37 -11q28 -20 28 -55q0 -33 -25 -64q-105 -129 -221 -182q-112 -51 -247 -51q-200 0 -340.5 99 t-200.5 265q-34 91 -34 194zM258 667l724 64q-26 94 -93 161q-99 96 -253 97q-170 0 -259 -88q-99 -99 -119 -234zM403 1313v57q0 35 25 67q35 44 83 44q23 0 44 -15.5t21 -51.5l-1 -56q0 -37 -25 -67q-35 -44 -82 -44q-23 0 -43.5 15t-21.5 51zM676 1313v57q0 35 25 67 q35 44 83 44q23 0 44 -15.5t21 -51.5l-1 -56q0 -37 -25 -67q-35 -44 -82 -44q-23 0 -43.5 15t-21.5 51z" />
<glyph unicode="&#xec;" horiz-adv-x="532" d="M8 1497q0 28 22 52q29 31 63 31q19 0 33 -11q132 -101 243 -223q12 -12 12 -32q0 -28 -28 -56t-55 -28t-42 17q-105 114 -230 211q-18 14 -18 39zM160 922v133q0 36 26 67q37 44 85 44q66 0 66 -66l-1 -97q0 -432 14 -772q4 -108 4 -137q0 -37 -24 -67q-36 -47 -88 -47 q-42 0 -51 36q-31 125 -31 906z" />
<glyph unicode="&#xed;" horiz-adv-x="532" d="M133 1279q0 57 268 280q26 21 54 21q24 0 39 -18q11 -14 11 -31q0 -39 -41 -72q-112 -92 -215 -199q-29 -30 -65 -30q-18 0 -32 11q-19 14 -19 38zM160 922v133q0 36 26 67q37 44 85 44q66 0 66 -66l-1 -97q0 -432 14 -772q4 -108 4 -137q0 -37 -24 -67q-36 -47 -88 -47 q-42 0 -51 36q-31 125 -31 906z" />
<glyph unicode="&#xee;" horiz-adv-x="532" d="M-21 1279q0 31 38 73q201 228 250 228q63 0 251 -225q18 -22 18 -42q0 -34 -29 -58.5t-54 -24.5q-26 0 -41 18q-77 93 -165 176q-76 -74 -154 -162q-27 -32 -63 -32q-18 0 -32 11q-19 14 -19 38zM160 922v133q0 36 26 67q37 44 85 44q66 0 66 -66l-1 -97q0 -432 14 -772 q4 -108 4 -137q0 -37 -24 -67q-36 -47 -88 -47q-42 0 -51 36q-31 125 -31 906z" />
<glyph unicode="&#xef;" horiz-adv-x="532" d="M35 1313v57q0 35 25 67q35 44 83 44q23 0 44 -15.5t21 -51.5l-1 -56q0 -37 -25 -67q-35 -44 -82 -44q-23 0 -43.5 15t-21.5 51zM160 922v133q0 36 26 67q37 44 85 44q66 0 66 -66l-1 -97q0 -432 14 -772q4 -108 4 -137q0 -37 -24 -67q-36 -47 -88 -47q-42 0 -51 36 q-31 125 -31 906zM308 1313v57q0 35 25 67q35 44 83 44q23 0 44 -15.5t21 -51.5l-1 -56q0 -37 -25 -67q-35 -44 -82 -44q-23 0 -43.5 15t-21.5 51z" />
<glyph unicode="&#xf0;" horiz-adv-x="1365" d="M80 513q0 216 154 411q192 242 493 242q148 0 269 -62l-1 148q-182 -7 -204 -7t-33 18q-9 14 -9 33q0 38 26 65q19 20 43 21q80 5 178 8q3 29 24 55q35 45 84 45q22 0 43 -15.5t21 -52.5v-25q57 3 87 3q23 0 35 -19q9 -14 9 -32q0 -39 -27 -67q-19 -20 -42 -21l-62 -2 q1 -496 9 -738q8 -250 37 -397q4 -22 4 -33q0 -23 -15 -52q-9 -18 -26 -32q-31 -27 -67 -27q-51 0 -60 48q-14 73 -24 157q-105 -115 -235 -166q-101 -39 -201 -39q-115 0 -228 53q-147 68 -222 217q-60 121 -60 263zM253 557q0 -89 39.5 -185.5t134.5 -155t198 -58.5 q231 0 383 258q-7 144 -11 447q-133 125 -316 125q-185 0 -303 -126q-125 -130 -125 -305z" />
<glyph unicode="&#xf1;" d="M160 922v133q0 36 26 67q37 44 85 44q66 0 66 -66l-1 -117q182 183 406 183q56 0 113 -13q304 -70 307 -453l4 -608q0 -36 -24 -67q-36 -45 -84 -45q-22 0 -43 15.5t-21 51.5l-2 608q0 226 -146 300q-70 35 -142 35q-215 0 -367 -255q4 -273 13 -504q4 -108 4 -137 q0 -37 -24 -67q-36 -47 -88 -47q-42 0 -51 36q-31 125 -31 906zM366 1300q1 65 22 131q40 127 150 127q93 0 173 -119q41 -61 74 -61q17 0 30 14q24 26 24 84q0 26 18 48q26 32 60 32q42 0 42 -41q0 -83 -31 -147q-57 -114 -178 -114q-89 0 -161 115q-39 62 -61 62 q-33 0 -38 -97q-1 -28 -18 -50q-26 -32 -60 -32q-16 0 -31 11.5t-15 36.5z" />
<glyph unicode="&#xf2;" horiz-adv-x="1345" d="M78 546q0 319 239 505q154 115 359 115q377 0 516 -308q59 -129 59 -261q0 -213 -123 -377q-181 -240 -476 -240q-254 0 -412 163q-162 175 -162 403zM250 596q0 -154 104 -284q124 -155 336 -155q222 0 333 182q53 86 53 204q0 44 -8 91q-30 173 -141 262 q-117 93 -294 93q-141 0 -233 -70q-150 -118 -150 -323zM416 1497q0 28 22 52q29 31 63 31q19 0 33 -11q132 -101 243 -223q12 -12 12 -32q0 -28 -28 -56t-55 -28t-42 17q-105 114 -230 211q-18 14 -18 39z" />
<glyph unicode="&#xf3;" horiz-adv-x="1345" d="M78 546q0 319 239 505q154 115 359 115q377 0 516 -308q59 -129 59 -261q0 -213 -123 -377q-181 -240 -476 -240q-254 0 -412 163q-162 175 -162 403zM250 596q0 -154 104 -284q124 -155 336 -155q222 0 333 182q53 86 53 204q0 44 -8 91q-30 173 -141 262 q-117 93 -294 93q-141 0 -233 -70q-150 -118 -150 -323zM541 1279q0 57 268 280q26 21 54 21q24 0 39 -18q11 -14 11 -31q0 -39 -41 -72q-112 -92 -215 -199q-29 -30 -65 -30q-18 0 -32 11q-19 14 -19 38z" />
<glyph unicode="&#xf4;" horiz-adv-x="1345" d="M78 546q0 319 239 505q154 115 359 115q377 0 516 -308q59 -129 59 -261q0 -213 -123 -377q-181 -240 -476 -240q-254 0 -412 163q-162 175 -162 403zM250 596q0 -154 104 -284q124 -155 336 -155q222 0 333 182q53 86 53 204q0 44 -8 91q-30 173 -141 262 q-117 93 -294 93q-141 0 -233 -70q-150 -118 -150 -323zM386 1279q0 31 38 73q201 228 250 228q63 0 251 -225q18 -22 18 -42q0 -34 -29 -58.5t-54 -24.5q-26 0 -41 18q-77 93 -165 176q-76 -74 -154 -162q-27 -32 -63 -32q-18 0 -32 11q-19 14 -19 38z" />
<glyph unicode="&#xf5;" horiz-adv-x="1345" d="M78 546q0 319 239 505q154 115 359 115q377 0 516 -308q59 -129 59 -261q0 -213 -123 -377q-181 -240 -476 -240q-254 0 -412 163q-162 175 -162 403zM250 596q0 -154 104 -284q124 -155 336 -155q222 0 333 182q53 86 53 204q0 44 -8 91q-30 173 -141 262 q-117 93 -294 93q-141 0 -233 -70q-150 -118 -150 -323zM368 1300q1 65 22 131q40 127 150 127q93 0 173 -119q41 -61 74 -61q17 0 30 14q24 26 24 84q0 26 18 48q26 32 60 32q42 0 42 -41q0 -83 -31 -147q-57 -114 -178 -114q-89 0 -161 115q-39 62 -61 62q-33 0 -38 -97 q-1 -28 -18 -50q-26 -32 -60 -32q-16 0 -31 11.5t-15 36.5z" />
<glyph unicode="&#xf6;" horiz-adv-x="1345" d="M78 546q0 319 239 505q154 115 359 115q377 0 516 -308q59 -129 59 -261q0 -213 -123 -377q-181 -240 -476 -240q-254 0 -412 163q-162 175 -162 403zM250 596q0 -154 104 -284q124 -155 336 -155q222 0 333 182q53 86 53 204q0 44 -8 91q-30 173 -141 262 q-117 93 -294 93q-141 0 -233 -70q-150 -118 -150 -323zM442 1313v57q0 35 25 67q35 44 83 44q23 0 44 -15.5t21 -51.5l-1 -56q0 -37 -25 -67q-35 -44 -82 -44q-23 0 -43.5 15t-21.5 51zM715 1313v57q0 35 25 67q35 44 83 44q23 0 44 -15.5t21 -51.5l-1 -56q0 -37 -25 -67 q-35 -44 -82 -44q-23 0 -43.5 15t-21.5 51z" />
<glyph unicode="&#xf7;" horiz-adv-x="1190" d="M100 685q0 47 41 84q29 25 65 26q723 21 817 21q37 0 54 -24q13 -17 13 -42q0 -47 -40 -83q-30 -26 -66 -27q-728 -22 -817 -22q-36 0 -54 25q-13 17 -13 42zM495 266v41q0 46 29 79q41 48 98 48q25 0 49 -16.5t24 -54.5v-43q0 -44 -29 -77q-40 -48 -97 -48 q-26 0 -50 16.5t-24 54.5zM495 1071v41q0 46 29 79q41 48 98 48q25 0 49 -16.5t24 -54.5v-44q0 -43 -29 -77q-40 -47 -97 -47q-26 0 -50 16.5t-24 54.5z" />
<glyph unicode="&#xf8;" horiz-adv-x="1345" d="M78 546q0 319 240 503q153 117 358 117q176 0 300 -67q23 31 46.5 64t60 53.5t67.5 20.5q49 0 49 -38q0 -20 -19 -46l-97 -134q66 -66 109 -161q59 -129 59 -261q0 -213 -123 -377q-181 -240 -476 -240q-167 0 -291 71l-57 -73q-26 -33 -66 -52q-33 -16 -62 -16 q-47 0 -47 37q0 22 22 50l104 135q-177 175 -177 414zM250 596q0 -172 124 -308q248 326 486 651q-97 50 -227 50q-141 0 -233 -71q-150 -117 -150 -322zM479 206q92 -49 211 -49q222 0 333 182q53 86 53 204q0 44 -8 91q-24 140 -101 224q-239 -326 -488 -652z" />
<glyph unicode="&#xf9;" d="M145 1055q0 36 25 67q35 44 83 44q64 0 64 -66l1 -609q1 -226 147 -300q70 -35 142 -35q220 0 374 267q-8 208 -8 631q0 36 25 68q36 44 83 44q23 0 44 -15t21 -52l-1 -196q0 -175 7 -394q7 -227 41 -391q4 -17 4 -27q0 -24 -15 -52.5t-51 -47.5q-20 -11 -42 -11 q-52 0 -62 48q-16 76 -27 162q-77 -86 -170 -139q-125 -71 -261 -71q-56 0 -113 13q-304 69 -307 453zM422 1497q0 28 22 52q29 31 63 31q19 0 33 -11q132 -101 243 -223q12 -12 12 -32q0 -28 -28 -56t-55 -28t-42 17q-105 114 -230 211q-18 14 -18 39z" />
<glyph unicode="&#xfa;" d="M145 1055q0 36 25 67q35 44 83 44q64 0 64 -66l1 -609q1 -226 147 -300q70 -35 142 -35q220 0 374 267q-8 208 -8 631q0 36 25 68q36 44 83 44q23 0 44 -15t21 -52l-1 -196q0 -175 7 -394q7 -227 41 -391q4 -17 4 -27q0 -24 -15 -52.5t-51 -47.5q-20 -11 -42 -11 q-52 0 -62 48q-16 76 -27 162q-77 -86 -170 -139q-125 -71 -261 -71q-56 0 -113 13q-304 69 -307 453zM547 1279q0 57 268 280q26 21 54 21q24 0 39 -18q11 -14 11 -31q0 -39 -41 -72q-112 -92 -215 -199q-29 -30 -65 -30q-18 0 -32 11q-19 14 -19 38z" />
<glyph unicode="&#xfb;" d="M145 1055q0 36 25 67q35 44 83 44q64 0 64 -66l1 -609q1 -226 147 -300q70 -35 142 -35q220 0 374 267q-8 208 -8 631q0 36 25 68q36 44 83 44q23 0 44 -15t21 -52l-1 -196q0 -175 7 -394q7 -227 41 -391q4 -17 4 -27q0 -24 -15 -52.5t-51 -47.5q-20 -11 -42 -11 q-52 0 -62 48q-16 76 -27 162q-77 -86 -170 -139q-125 -71 -261 -71q-56 0 -113 13q-304 69 -307 453zM393 1279q0 31 38 73q201 228 250 228q63 0 251 -225q18 -22 18 -42q0 -34 -29 -58.5t-54 -24.5q-26 0 -41 18q-77 93 -165 176q-76 -74 -154 -162q-27 -32 -63 -32 q-18 0 -32 11q-19 14 -19 38z" />
<glyph unicode="&#xfc;" d="M145 1055q0 36 25 67q35 44 83 44q64 0 64 -66l1 -609q1 -226 147 -300q70 -35 142 -35q220 0 374 267q-8 208 -8 631q0 36 25 68q36 44 83 44q23 0 44 -15t21 -52l-1 -196q0 -175 7 -394q7 -227 41 -391q4 -17 4 -27q0 -24 -15 -52.5t-51 -47.5q-20 -11 -42 -11 q-52 0 -62 48q-16 76 -27 162q-77 -86 -170 -139q-125 -71 -261 -71q-56 0 -113 13q-304 69 -307 453zM449 1313v57q0 35 25 67q35 44 83 44q23 0 44 -15.5t21 -51.5l-1 -56q0 -37 -25 -67q-35 -44 -82 -44q-23 0 -43.5 15t-21.5 51zM722 1313v57q0 35 25 67q35 44 83 44 q23 0 44 -15.5t21 -51.5l-1 -56q0 -37 -25 -67q-35 -44 -82 -44q-23 0 -43.5 15t-21.5 51z" />
<glyph unicode="&#xfd;" horiz-adv-x="1324" d="M141 -162q0 33 37.5 72t69.5 39t54 -27q69 -88 162 -121q69 -24 156 -24q281 0 342 257q19 81 27 191q-71 -74 -155 -122q-125 -71 -261 -71q-56 0 -113 13q-304 69 -307 453l-4 557q0 36 25 67q35 44 83 44q64 0 64 -66l2 -557q0 -226 146 -300q70 -35 142 -35 q220 0 381 277q-7 145 -32 400q-13 136 -13 174q0 50 40 83q31 24 65 24q57 0 63 -60l31 -318q23 -236 23 -344q0 -107 -12.5 -245t-70 -279.5t-176.5 -230.5t-330 -89q-143 0 -243.5 45t-184.5 153q-11 14 -11 40zM531 1279q0 57 268 280q26 21 54 21q24 0 39 -18 q11 -14 11 -31q0 -39 -41 -72q-112 -92 -215 -199q-29 -30 -65 -30q-18 0 -32 11q-19 14 -19 38z" />
<glyph unicode="&#xfe;" horiz-adv-x="1370" d="M160 403q0 293 16 562q11 190 26 418q2 38 28 68q35 39 81 39q24 0 41 -15q21 -18 21 -51q0 -19 -9.5 -165.5t-16.5 -277.5q98 99 216 146q101 39 201 39q115 0 228 -53q147 -68 222 -217q60 -121 60 -263q0 -217 -154 -411q-192 -242 -493 -242q-160 0 -287 72 q4 -124 12 -231q6 -78 6 -101q0 -48 -34 -84t-73 -36q-61 0 -65 63q-26 367 -26 740zM333 450l1 -155q146 -138 339 -138q185 0 303 126q125 131 125 305q0 90 -39.5 186.5t-134.5 154.5t-198 58q-231 0 -393 -268q-3 -137 -3 -269z" />
<glyph unicode="&#xff;" horiz-adv-x="1324" d="M141 -162q0 33 37.5 72t69.5 39t54 -27q69 -88 162 -121q69 -24 156 -24q281 0 342 257q19 81 27 191q-71 -74 -155 -122q-125 -71 -261 -71q-56 0 -113 13q-304 69 -307 453l-4 557q0 36 25 67q35 44 83 44q64 0 64 -66l2 -557q0 -226 146 -300q70 -35 142 -35 q220 0 381 277q-7 145 -32 400q-13 136 -13 174q0 50 40 83q31 24 65 24q57 0 63 -60l31 -318q23 -236 23 -344q0 -107 -12.5 -245t-70 -279.5t-176.5 -230.5t-330 -89q-143 0 -243.5 45t-184.5 153q-11 14 -11 40zM433 1313v57q0 35 25 67q35 44 83 44q23 0 44 -15.5 t21 -51.5l-1 -56q0 -37 -25 -67q-35 -44 -82 -44q-23 0 -43.5 15t-21.5 51zM706 1313v57q0 35 25 67q35 44 83 44q23 0 44 -15.5t21 -51.5l-1 -56q0 -37 -25 -67q-35 -44 -82 -44q-23 0 -43.5 15t-21.5 51z" />
<glyph unicode="&#x152;" horiz-adv-x="2371" d="M68 706q0 169 70 343q78 192 222 304q178 137 416 137q89 0 148 -17.5t97 -32.5q145 -58 245 -183q3 33 9 65q11 71 39.5 99t67.5 33q262 36 512 36q198 0 374 -31q35 -6 48 -37q6 -14 6 -31q0 -19 -9 -41q-16 -39 -51 -61q-25 -15 -52 -15q-10 0 -27 2q-153 23 -338 23 q-203 0 -393 -21q-27 -274 -27 -600q105 17 300 17q467 0 497 -59q9 -17 9 -37q0 -15 -6 -33q-14 -40 -46 -63q-28 -19 -61 -19q-21 0 -35 2q-179 18 -403 18q-123 0 -250 -11q8 -162 25 -323q225 26 440 26q197 0 373 -30q35 -6 48 -38q6 -14 6 -31q0 -19 -9 -40 q-16 -40 -51 -61q-25 -15 -52 -15q-10 0 -26 2q-154 23 -339 23q-230 0 -443 -26q-36 -4 -58 -4q-57 0 -70 111l-17 151q-84 -109 -210 -182q-140 -80 -313 -80q-301 0 -483 214q-83 97 -128 218q-55 143 -55 298zM254 750q0 -136 41 -244q31 -81 101 -166q58 -70 135 -113 q112 -62 249 -62q153 0 292 111q103 82 144 249q23 94 23 189q0 142 -52.5 273.5t-171.5 221.5t-291 90q-54 0 -101 -9q-248 -51 -334 -322q-35 -111 -35 -218z" />
<glyph unicode="&#x153;" horiz-adv-x="2263" d="M78 546q0 319 239 505q154 115 359 115q355 0 499 -273q40 62 96 116q173 157 415 157q254 0 395 -203q88 -129 88 -262q0 -130 -102 -138l-805 -70q22 -100 91 -184q125 -153 332 -153q202 0 312 141q36 46 85 46q20 0 37 -11q28 -20 28 -55q0 -33 -25 -64 q-105 -129 -221 -182q-112 -51 -247 -51q-200 0 -340 99q-101 71 -161 177l-25 -36q-181 -240 -476 -240q-254 0 -412 163q-162 175 -162 403zM250 596q0 -154 104 -284q124 -155 336 -155q222 0 333 182q53 86 53 204q0 44 -8 91q-30 173 -141 262q-117 93 -294 93 q-141 0 -233 -70q-150 -118 -150 -323zM1257 667l724 64q-26 94 -93 161q-99 96 -253 97q-170 0 -259 -88q-99 -99 -119 -234z" />
<glyph unicode="&#x178;" horiz-adv-x="1147" d="M32 1371q0 24 15 54.5t53 51.5q24 13 46 13q51 0 67 -47q66 -202 160 -371t214 -327q252 317 446 678q21 38 57 56q22 11 44 11q13 0 26 -5q44 -16 44 -67q0 -24 -14 -51q-227 -421 -529 -790q0 -110 -1 -220q-2 -132 -2 -262q0 -38 -27 -71q-38 -48 -89 -48 q-24 0 -46.5 16.5t-22.5 54.5q0 129 2 325l1 92l-2 85q-143 182 -253 374t-185 424q-4 12 -4 24zM396 1637v57q0 35 25 67q35 44 83 44q23 0 44 -15.5t21 -51.5l-1 -56q0 -37 -25 -67q-35 -44 -82 -44q-23 0 -43.5 15t-21.5 51zM669 1637v57q0 35 25 67q35 44 83 44 q23 0 44 -15.5t21 -51.5l-1 -56q0 -37 -25 -67q-35 -44 -82 -44q-23 0 -43.5 15t-21.5 51z" />
<glyph unicode="&#x2c6;" horiz-adv-x="757" d="M100 1279q0 31 38 73q201 228 250 228q63 0 251 -225q18 -22 18 -42q0 -34 -29 -58.5t-54 -24.5q-26 0 -41 18q-77 93 -165 176q-76 -74 -154 -162q-27 -32 -63 -32q-18 0 -32 11q-19 14 -19 38z" />
<glyph unicode="&#x2dc;" horiz-adv-x="793" d="M100 1300q1 65 22 131q40 127 150 127q93 0 173 -119q41 -61 74 -61q17 0 30 14q24 26 24 84q0 26 18 48q26 32 60 32q42 0 42 -41q0 -83 -31 -147q-57 -114 -178 -114q-89 0 -161 115q-39 62 -61 62q-33 0 -38 -97q-1 -28 -18 -50q-26 -32 -60 -32q-16 0 -31 11.5 t-15 36.5z" />
<glyph unicode="&#x2000;" horiz-adv-x="952" />
<glyph unicode="&#x2001;" horiz-adv-x="1904" />
<glyph unicode="&#x2002;" horiz-adv-x="952" />
<glyph unicode="&#x2003;" horiz-adv-x="1904" />
<glyph unicode="&#x2004;" horiz-adv-x="634" />
<glyph unicode="&#x2005;" horiz-adv-x="476" />
<glyph unicode="&#x2006;" horiz-adv-x="317" />
<glyph unicode="&#x2007;" horiz-adv-x="317" />
<glyph unicode="&#x2008;" horiz-adv-x="238" />
<glyph unicode="&#x2009;" horiz-adv-x="380" />
<glyph unicode="&#x200a;" horiz-adv-x="105" />
<glyph unicode="&#x2010;" horiz-adv-x="1035" d="M100 541q0 48 40 84q29 25 65 26q134 6 299 11q126 4 221.5 8t142.5 4q36 0 54 -25q13 -17 13 -41q0 -49 -40 -84q-29 -26 -65 -27q-615 -21 -666 -21q-34 0 -51 23q-13 17 -13 42z" />
<glyph unicode="&#x2011;" horiz-adv-x="1035" d="M100 541q0 48 40 84q29 25 65 26q134 6 299 11q126 4 221.5 8t142.5 4q36 0 54 -25q13 -17 13 -41q0 -49 -40 -84q-29 -26 -65 -27q-615 -21 -666 -21q-34 0 -51 23q-13 17 -13 42z" />
<glyph unicode="&#x2012;" horiz-adv-x="1035" d="M100 541q0 48 40 84q29 25 65 26q134 6 299 11q126 4 221.5 8t142.5 4q36 0 54 -25q13 -17 13 -41q0 -49 -40 -84q-29 -26 -65 -27q-615 -21 -666 -21q-34 0 -51 23q-13 17 -13 42z" />
<glyph unicode="&#x2013;" horiz-adv-x="1886" d="M100 540q0 50 41 86q29 26 65 27l1514 21q35 0 53 -25q13 -18 13 -41q0 -49 -42 -85q-29 -25 -65 -26l-1408 -22h-106q-34 0 -53 26q-12 16 -12 39z" />
<glyph unicode="&#x2014;" horiz-adv-x="2799" d="M100 540q0 50 42 86q29 25 65 25q2299 23 2426 23q36 0 53 -26q13 -19 13 -41q0 -49 -42 -85q-30 -25 -65 -26l-2244 -21h-183q-35 0 -53 25q-12 17 -12 40z" />
<glyph unicode="&#x2018;" horiz-adv-x="319" d="M0 1068q0 159 91 324q57 98 117 98q24 0 42.5 -16t18.5 -46q0 -25 -15 -53q-38 -72 -53 -129t-15 -130q0 -54 -23 -77q-43 -42 -96 -42q-23 0 -45 16.5t-22 54.5z" />
<glyph unicode="&#x2019;" horiz-adv-x="319" d="M0 1058q0 26 15 54q38 72 53 129t15 130q0 54 23 77q44 42 96 42q23 0 45 -16.5t22 -54.5q0 -159 -91 -324q-57 -98 -117 -98q-24 0 -42.5 15.5t-18.5 45.5z" />
<glyph unicode="&#x201a;" horiz-adv-x="469" d="M100 -217q0 25 15 53q38 72 53 129t15 130q0 54 23 77q43 42 96 42q23 0 45 -16.5t22 -54.5q0 -159 -91 -324q-57 -98 -117 -98q-24 0 -42.5 16t-18.5 46z" />
<glyph unicode="&#x201c;" horiz-adv-x="696" d="M0 1068q0 159 91 324q57 98 117 98q24 0 42.5 -16t18.5 -46q0 -25 -15 -53q-38 -72 -53 -129t-15 -130q0 -54 -23 -77q-43 -42 -96 -42q-23 0 -45 16.5t-22 54.5zM377 1068q0 159 91 324q57 98 117 98q24 0 42.5 -16t18.5 -46q0 -25 -15 -53q-38 -72 -53 -129t-15 -130 q0 -54 -23 -77q-43 -42 -96 -42q-23 0 -45 16.5t-22 54.5z" />
<glyph unicode="&#x201d;" horiz-adv-x="696" d="M0 1058q0 26 15 54q38 72 53 129t15 130q0 54 23 77q44 42 96 42q23 0 45 -16.5t22 -54.5q0 -159 -91 -324q-57 -98 -117 -98q-24 0 -42.5 15.5t-18.5 45.5zM377 1058q0 26 15 54q38 72 53 129t15 130q0 54 23 77q44 42 96 42q23 0 45 -16.5t22 -54.5q0 -159 -91 -324 q-57 -98 -117 -98q-24 0 -42.5 15.5t-18.5 45.5z" />
<glyph unicode="&#x201e;" horiz-adv-x="696" d="M0 -185q0 26 15 54q38 72 53 129t15 130q0 54 23 77q44 42 96 42q23 0 45 -16.5t22 -54.5q0 -159 -91 -324q-57 -98 -117 -98q-24 0 -42.5 15.5t-18.5 45.5zM377 -185q0 26 15 54q38 72 53 129t15 130q0 54 23 77q44 42 96 42q23 0 45 -16.5t22 -54.5q0 -159 -91 -324 q-57 -98 -117 -98q-24 0 -42.5 15.5t-18.5 45.5z" />
<glyph unicode="&#x2022;" horiz-adv-x="1024" d="M199 649v81q0 92 58 157q81 96 195 96q49 0 97 -33t48 -108v-86q0 -88 -58 -153q-79 -96 -193 -96q-51 0 -99 33t-48 109z" />
<glyph unicode="&#x2026;" horiz-adv-x="2048" d="M100 47v41q0 46 29 79q41 48 98 48q25 0 49 -16.5t24 -54.5v-43q0 -44 -29 -77q-40 -48 -97 -48q-26 0 -50 16.5t-24 54.5zM783 47v41q0 46 29 79q41 48 98 48q25 0 49 -16.5t24 -54.5v-43q0 -44 -29 -77q-40 -48 -97 -48q-26 0 -50 16.5t-24 54.5zM1466 47v41 q0 46 29 79q41 48 98 48q25 0 49 -16.5t24 -54.5v-43q0 -44 -29 -77q-40 -48 -97 -48q-26 0 -50 16.5t-24 54.5z" />
<glyph unicode="&#x202f;" horiz-adv-x="380" />
<glyph unicode="&#x2039;" horiz-adv-x="776" d="M100 603q0 57 82 133l344 321q31 29 73 29q29 0 46 -20.5t17 -45.5q0 -46 -38 -81l-314 -298l347 -360q19 -21 19 -49q0 -39 -34.5 -74.5t-75.5 -35.5q-26 0 -45 19q-401 402 -418 445q-3 8 -3 17z" />
<glyph unicode="&#x203a;" horiz-adv-x="776" d="M100 975q0 40 34.5 75.5t75.5 35.5q26 0 45 -19q401 -402 418 -445q3 -9 3 -18q0 -57 -82 -133l-344 -320q-31 -29 -72 -29q-29 0 -46.5 20.5t-17.5 44.5q0 47 38 82l314 298l-347 360q-19 20 -19 48z" />
<glyph unicode="&#x205f;" horiz-adv-x="476" />
<glyph unicode="&#x20ac;" horiz-adv-x="1393" d="M31 520q0 43 38 76q27 23 60 24l141 4q-3 42 -3 85l1 48q-122 -3 -163 -3q-33 0 -50 21q-12 16 -12 39q0 43 38 75q27 24 60 25l147 4q12 60 31 121q51 164 174 295q151 159 392 159q239 0 405 -214q15 -20 15 -46q0 -44 -36 -80q-39 -39 -82 -39q-34 0 -55 26l-30 35 q-61 70 -159 105q-56 20 -114 20q-162 0 -267 -154q-68 -100 -95 -223q396 10 439 10q33 0 51 -22q11 -15 11 -36q0 -46 -37 -78q-28 -23 -61 -24l-419 -12v-1q0 -69 9 -131q391 10 434 10q33 0 51 -22q11 -15 11 -36q0 -45 -37 -78q-28 -23 -61 -24l-356 -10 q37 -95 102 -172q110 -131 281 -131q78 0 151 37.5t140 150.5q23 39 60 56q24 11 44 11q13 0 26 -5q44 -18 44 -66q0 -26 -16 -54q-78 -135 -178 -215q-135 -108 -333 -108q-146 0 -270 79.5t-199 242.5q-37 81 -59 169q-155 -4 -202 -4q-33 0 -50 21q-12 16 -12 39z" />
<glyph unicode="&#x2122;" horiz-adv-x="1262" d="M50 1423q0 18 14.5 31.5t32.5 15.5q120 14 243 14q97 0 178 -12q25 -4 25 -28q0 -7 -4 -16q-14 -31 -48 -31l-12 1q-70 10 -160 10h-12v-117q0 -200 13 -318q4 -36 4 -47q0 -13 -10 -26q-16 -22 -42 -22q-28 0 -31 25q-18 155 -18 379q0 65 2 124q-38 -1 -144 -12 q-14 0 -22.5 8t-8.5 21zM543 1168q0 135 17 273q3 16 17.5 29.5t39.5 13.5t33 -16l201 -364l193 352q15 28 47 28q21 0 35.5 -13.5t16.5 -29.5q15 -130 17 -228t2 -154q0 -78 -2 -152q-1 -28 -31 -28q-24 0 -40 19q-11 13 -11 28l1 151q0 162 -8 279l-192 -344 q-17 -30 -41 -30q-16 0 -26 16q-80 139 -182 324q-4 -68 -4 -135q0 -114 14 -224l3 -36q0 -14 -10 -27q-16 -22 -42 -22q-48 0 -48 290z" />
<glyph unicode="&#x25fc;" horiz-adv-x="1165" d="M0 0v1165h1165v-1165h-1165z" />
</font>
</defs>
</svg>
